<svg width="152" height="123" viewBox="0 0 152 123" fill="none" xmlns="http://www.w3.org/2000/svg">
<path d="M98.3727 121.439L81.4484 103.119C79.7073 101.235 79.7073 98.3116 81.4484 96.4268L94.1229 82.707C95.8641 80.8222 95.8641 77.8993 94.1229 76.0145L77.1986 57.6944C75.2764 55.6136 72.0094 55.6136 70.0871 57.6944L20.6274 111.233C18.7051 113.314 15.4382 113.314 13.5159 111.233L1.30584 98.0162C-0.435281 96.1315 -0.435281 93.2085 1.30585 91.3238L84.2299 1.56059C86.1522 -0.520196 89.4192 -0.520197 91.3414 1.56059L150.694 65.8084C152.435 67.6931 152.435 70.6161 150.694 72.5008L105.484 121.439C103.562 123.52 100.295 123.52 98.3727 121.439Z" fill="#140A44"/>
</svg>
