<?xml version="1.0" encoding="utf-8"?>
<!-- Generator: Adobe Illustrator 27.5.0, SVG Export Plug-In . SVG Version: 6.00 Build 0)  -->
<svg version="1.1" xmlns="http://www.w3.org/2000/svg" xmlns:xlink="http://www.w3.org/1999/xlink" x="0px" y="0px"
	 viewBox="0 0 750 500" style="enable-background:new 0 0 750 500;" xml:space="preserve">
<g id="BACKGROUND">
	<rect style="fill:#F2EEDD;" width="750" height="500"/>
</g>
<g id="OBJECTS">
	<g>
		<g>
			<g>
				<path style="fill:#FFFFFF;" d="M547.528,265.054c0-3.084-0.082-6.148-0.24-9.192c9.191,0.881,18.339,2.201,27.398,3.987
					c-0.519-4.451-1.038-8.901-1.557-13.352c-8.753,1.1-17.548,1.864-26.359,2.313c-3.518-38.154-19.299-72.75-43.371-99.818
					c7.742-4.899,15.618-9.51,21.9-12.447c-3.581-1.604-6.424-4.779-7.627-8.514c-5.081,3.99-12.511,9.353-20.045,14.777
					c-31.717-32.383-75.923-52.485-124.831-52.485c-39.73,0-76.355,13.268-105.707,35.604c-9.575-9.307-18.531-21.343-20.982-29.592
					c-3.029,6.762-6.057,13.523-9.086,20.285c6.988,1.028,16.743,6.735,25.277,13.081c-26.542,21.694-46.58,51.037-56.758,84.668
					c-4.396-1.107-8.344-2.235-11.069-3.201c-8.438-2.994-16.33-8.641-20.028-16.796c-0.751,6.992-1.111,14.025-1.077,21.057
					c8.581-0.162,19.601,2.284,30.241,5.799c-3.618,14.006-5.544,28.692-5.544,43.828c0,7.503,0.474,14.895,1.392,22.149
					c-7.579,0.967-15.243,1.274-22.875,0.9c-4.096-0.201-8.284-0.623-11.978-2.403c-3.694-1.78-6.845-5.174-7.297-9.25
					c-3.473,10.62-6.946,21.24-10.419,31.86c11.6-5.999,33.694-11.091,53.645-13.909c4.648,27.481,15.708,52.779,31.593,74.303
					c-11.168,6.698-25.52,11.419-35.077,18.852c7.395,4.797,16.121,14.799,23.516,19.596c1.048-12.383,7.775-22.707,16.301-32.319
					c32.033,39.614,81.02,64.953,135.933,64.953c63.821,0,119.641-34.222,150.135-85.31c7.119,3.734,13.533,7.433,15.856,9.085
					c5.469,3.887,10.142,8.767,14.779,13.616c-0.011-6.943,1.384-13.885,4.078-20.284c-6.045,0.157-18.799-4.298-30.867-9.194
					C540.012,323.094,547.528,294.953,547.528,265.054z M537.786,265.055c0,28.536-7.285,55.402-20.088,78.84
					c-3.359-1.451-6.485-2.844-9.179-4.069c12.27-22.185,19.267-47.674,19.267-74.77c0-3.49-0.128-6.95-0.356-10.383
					c3.351,0.082,6.7,0.213,10.046,0.415C537.674,258.386,537.786,261.707,537.786,265.055z M537.019,249.178
					c-3.343,0.079-6.687,0.103-10.031,0.088c-3.479-34.231-18.15-65.197-40.276-89.189c2.593-1.802,5.416-3.723,8.359-5.679
					C518.262,180,533.538,212.892,537.019,249.178z M372.794,100.063c45.574,0,86.889,18.575,116.778,48.55
					c-2.879,2.084-5.648,4.103-8.173,5.981c-27.988-27.522-66.345-44.531-108.605-44.531c-33.137,0-63.874,10.458-89.096,28.24
					c-2.774-1.246-5.877-3.249-9.088-5.762C302.064,112.145,336.044,100.063,372.794,100.063z M270.137,135.987
					c2.813,2.437,5.255,4.775,7.091,6.78c0.654-0.863,1.626-1.332,2.674-1.707c-25.606,19.232-45.083,46.198-54.939,77.398
					c-3.039-0.495-6.439-1.147-9.89-1.881C224.971,184.443,244.44,156.468,270.137,135.987z M222.151,228.574
					c-2.834,11.704-4.348,23.918-4.348,36.481c0,6.686,0.426,13.273,1.251,19.738c-2.682,0.009-5.962,0.274-9.965,0.881
					c-0.846-6.756-1.286-13.637-1.286-20.619c0-13.963,1.751-27.524,5.031-40.482C216.095,225.859,219.231,227.209,222.151,228.574z
					 M210.214,293.197c3.505-0.376,6.862-0.666,9.994-0.86c4.09,22.941,13.244,44.151,26.262,62.428
					c-1.521,3.1-3.719,5.793-6.392,8.197C225.115,342.733,214.664,318.98,210.214,293.197z M372.794,430.046
					c-52.246,0-98.892-24.416-129.144-62.43c2.344-2.381,4.741-4.737,7.128-7.092c28.397,36.213,72.535,59.522,122.016,59.522
					c55.828,0,104.852-29.674,132.141-74.075c2.702,1.057,5.885,2.483,9.219,4.086C485.247,397.951,432.7,430.046,372.794,430.046z"
					/>
				<g>
					<g>
						<g>
							<path style="fill:#F2EEDD;" d="M489.473,309.901c-0.834-0.318-9.977-4.178-18.9-7.98c-8.921-3.82-17.623-7.517-17.479-7.991
								c0.156-0.47,9.243,2.231,18.554,4.969c9.306,2.753,18.815,5.602,19.661,5.888c1.695,0.561,2.669,2.204,2.168,3.668
								C492.973,309.917,491.124,310.544,489.473,309.901z"/>
						</g>
						<g>
							<path style="fill:#F2EEDD;" d="M469.124,314.194c-0.458-0.233-5.469-2.97-10.347-5.684c-4.876-2.719-9.628-5.397-9.495-5.654
								c0.133-0.257,5.15,1.905,10.273,4.14c5.124,2.241,10.329,4.565,10.793,4.789c0.936,0.447,1.406,1.355,1.059,2.032
								C471.06,314.495,470.038,314.664,469.124,314.194z"/>
						</g>
						<g>
							<path style="fill:#F2EEDD;" d="M470.615,327.928c-0.587-0.376-6.975-4.764-13.196-9.09
								c-6.216-4.334-12.284-8.575-12.072-8.902c0.208-0.33,6.728,3.237,13.359,6.871c6.635,3.648,13.401,7.419,13.999,7.777
								c1.197,0.709,1.734,2.081,1.119,3.014C473.223,328.539,471.785,328.686,470.615,327.928z"/>
						</g>
						<g>
							<path style="fill:#F2EEDD;" d="M480.942,291.834c-0.57-0.14-6.862-1.883-13.002-3.631
								c-6.139-1.755-12.133-3.487-12.059-3.808c0.074-0.321,6.219,0.759,12.503,1.882c6.283,1.13,12.7,2.33,13.274,2.456
								c1.148,0.246,1.916,1.155,1.714,2.031C483.169,291.639,482.081,292.118,480.942,291.834z"/>
						</g>
					</g>
					<g>
						<g>
							<path style="fill:#F2EEDD;" d="M446.71,365.844c-0.53-0.718-6.143-8.9-11.599-16.917
								c-5.441-8.023-10.804-15.882-10.411-16.185c0.39-0.308,6.582,6.875,12.942,14.211c6.346,7.346,12.81,14.883,13.367,15.58
								c1.124,1.388,1.052,3.289-0.163,4.241C449.642,367.742,447.763,367.289,446.71,365.844z"/>
						</g>
						<g>
							<path style="fill:#F2EEDD;" d="M427.262,358.472c-0.26-0.443-3.004-5.449-5.648-10.365c-2.639-4.918-5.196-9.734-4.945-9.876
								c0.254-0.138,3.309,4.381,6.411,9.013c3.099,4.638,6.233,9.409,6.503,9.846c0.537,0.863,0.475,1.934-0.192,2.303
								C428.732,359.772,427.779,359.36,427.262,358.472z"/>
						</g>
						<g>
							<path style="fill:#F2EEDD;" d="M421.11,370.84c-0.291-0.634-3.303-7.773-6.208-14.769c-2.895-7-5.718-13.841-5.362-13.999
								c0.359-0.152,3.901,6.316,7.534,12.969c3.621,6.651,7.287,13.477,7.597,14.101c0.624,1.239,0.335,2.682-0.675,3.16
								C422.979,372.766,421.686,372.11,421.11,370.84z"/>
						</g>
						<g>
							<path style="fill:#F2EEDD;" d="M449.271,346.029c-0.404-0.426-4.75-5.295-8.965-10.086c-4.21-4.796-8.31-9.495-8.07-9.722
								c0.24-0.227,4.825,4.009,9.503,8.358c4.673,4.354,9.419,8.839,9.834,9.254c0.832,0.828,0.981,2.003,0.331,2.623
								C451.255,347.076,450.076,346.884,449.271,346.029z"/>
						</g>
					</g>
					<g>
						<g>
							<path style="fill:#F2EEDD;" d="M380.457,389.801c-0.056-0.891-0.338-10.817-0.579-20.524
								c-0.224-9.708-0.469-19.192,0.027-19.229c0.496-0.037,1.806,9.367,3.173,18.986c1.351,9.627,2.694,19.448,2.785,20.337
								c0.193,1.793-0.898,3.329-2.437,3.448C381.887,392.938,380.558,391.583,380.457,389.801z"/>
						</g>
						<g>
							<path style="fill:#F2EEDD;" d="M368.111,373.084c0.021-0.513,0.421-6.212,0.856-11.782c0.441-5.57,0.897-11.011,1.187-11.005
								c0.291,0.007,0.416,5.463,0.518,11.047c0.097,5.584,0.15,11.294,0.14,11.808c-0.016,1.027-0.646,1.845-1.407,1.825
								C368.645,374.959,368.065,374.111,368.111,373.084z"/>
						</g>
						<g>
							<path style="fill:#F2EEDD;" d="M356.254,380.166c0.097-0.69,1.419-8.33,2.754-15.793c1.345-7.462,2.667-14.751,3.054-14.702
								c0.387,0.049-0.131,7.441-0.668,15.006c-0.547,7.563-1.151,15.293-1.227,15.986c-0.146,1.387-1.162,2.399-2.271,2.258
								C356.788,382.78,356.053,381.546,356.254,380.166z"/>
						</g>
						<g>
							<path style="fill:#F2EEDD;" d="M393.352,374.539c-0.109-0.577-1.123-7.022-2.072-13.329
								c-0.941-6.309-1.842-12.474-1.517-12.53c0.327-0.047,1.879,5.963,3.456,12.149c1.569,6.181,3.13,12.514,3.253,13.089
								c0.25,1.14-0.252,2.256-1.134,2.425C394.454,376.502,393.565,375.694,393.352,374.539z"/>
						</g>
					</g>
					<g>
						<g>
							<path style="fill:#F2EEDD;" d="M311.793,374.152c0.435-0.78,5.561-9.276,10.6-17.563c5.05-8.271,9.969-16.382,10.415-16.165
								c0.442,0.224-3.532,8.833-7.575,17.657c-4.058,8.817-8.24,17.821-8.644,18.617c-0.798,1.598-2.561,2.323-3.935,1.615
								C311.268,377.626,310.923,375.691,311.793,374.152z"/>
						</g>
						<g>
							<path style="fill:#F2EEDD;" d="M310.453,353.4c0.296-0.42,3.718-4.99,7.099-9.432c3.385-4.439,6.713-8.76,6.948-8.591
								c0.235,0.169-2.62,4.828-5.561,9.58c-2.94,4.74-5.986,9.566-6.272,9.992c-0.574,0.86-1.552,1.215-2.167,0.765
								C309.879,355.274,309.858,354.237,310.453,353.4z"/>
						</g>
						<g>
							<path style="fill:#F2EEDD;" d="M296.65,352.926c0.456-0.527,5.705-6.229,10.869-11.773
								c5.172-5.538,10.23-10.942,10.524-10.685c0.293,0.259-4.153,6.194-8.693,12.245c-4.553,6.05-9.247,12.213-9.687,12.754
								c-0.867,1.078-2.311,1.428-3.145,0.684C295.674,355.421,295.733,353.976,296.65,352.926z"/>
						</g>
						<g>
							<path style="fill:#F2EEDD;" d="M330.894,368.287c0.22-0.544,2.848-6.52,5.457-12.345c2.616-5.822,5.19-11.505,5.496-11.383
								c0.306,0.121-1.644,6.049-3.657,12.109c-2.02,6.057-4.128,12.237-4.334,12.786c-0.408,1.101-1.416,1.727-2.253,1.398
								C330.767,370.522,330.449,369.373,330.894,368.287z"/>
						</g>
					</g>
					<g>
						<g>
							<path style="fill:#F2EEDD;" d="M262.497,323.883c0.786-0.423,9.683-4.813,18.393-9.074
								c8.731-4.253,17.259-8.438,17.507-8.008c0.248,0.429-7.743,5.538-15.909,10.791c-8.174,5.239-16.552,10.567-17.322,11.02
								c-1.533,0.915-3.404,0.573-4.172-0.768C260.21,326.511,260.91,324.723,262.497,323.883z"/>
						</g>
						<g>
							<path style="fill:#F2EEDD;" d="M272.565,305.678c0.476-0.194,5.822-2.194,11.064-4.108
								c5.244-1.909,10.374-3.752,10.478-3.483c0.1,0.271-4.789,2.641-9.826,5.054c-5.034,2.406-10.203,4.826-10.674,5.031
								c-0.936,0.41-1.968,0.188-2.261-0.515C271.066,306.948,271.612,306.062,272.565,305.678z"/>
						</g>
						<g>
							<path style="fill:#F2EEDD;" d="M261.204,297.817c0.669-0.197,8.165-2.155,15.504-4.026
								c7.343-1.863,14.511-3.674,14.621-3.301c0.127,0.368-6.805,2.953-13.904,5.594c-7.103,2.631-14.383,5.282-15.046,5.499
								c-1.323,0.442-2.685-0.059-3.04-1.119C259.023,299.392,259.866,298.204,261.204,297.817z"/>
						</g>
						<g>
							<path style="fill:#F2EEDD;" d="M281.755,329.235c0.479-0.339,5.915-3.952,11.254-7.446
								c5.344-3.489,10.575-6.881,10.765-6.611c0.19,0.27-4.653,4.209-9.62,8.225c-4.974,4.012-10.08,8.07-10.549,8.421
								c-0.947,0.714-2.124,0.69-2.647-0.041C280.437,331.05,280.794,329.909,281.755,329.235z"/>
						</g>
					</g>
					<g>
						<g>
							<path style="fill:#F2EEDD;" d="M248.234,254.919c0.89,0.07,10.754,1.184,20.394,2.308c9.639,1.141,19.057,2.23,19.016,2.725
								c-0.05,0.495-9.53,0.474-19.222,0.477c-9.699-0.014-19.621-0.065-20.513-0.1c-1.765-0.059-3.242-1.357-3.107-2.896
								C244.916,255.895,246.455,254.769,248.234,254.919z"/>
						</g>
						<g>
							<path style="fill:#F2EEDD;" d="M266.525,245.043c0.505,0.094,6.088,1.298,11.538,2.518
								c5.449,1.225,10.768,2.446,10.717,2.731c-0.051,0.285-5.473-0.366-11.017-1.055c-5.543-0.695-11.206-1.45-11.713-1.533
								c-1.015-0.161-1.729-0.9-1.595-1.65C264.588,245.305,265.515,244.852,266.525,245.043z"/>
						</g>
						<g>
							<path style="fill:#F2EEDD;" d="M261.204,232.292c0.669,0.195,8.04,2.596,15.233,4.984c7.19,2.398,14.214,4.747,14.106,5.121
								c-0.107,0.374-7.352-1.196-14.764-2.809c-7.411-1.623-14.974-3.324-15.646-3.498c-1.36-0.344-2.205-1.493-1.902-2.569
								C258.534,232.446,259.867,231.895,261.204,232.292z"/>
						</g>
						<g>
							<path style="fill:#F2EEDD;" d="M261.504,269.823c0.587-0.026,7.109-0.116,13.484-0.158c6.37-0.035,12.606-0.049,12.639,0.279
								c0.027,0.329-6.167,1.014-12.51,1.695c-6.343,0.674-12.836,1.317-13.422,1.358c-1.171,0.086-2.175-0.571-2.242-1.467
								C259.37,270.635,260.344,269.868,261.504,269.823z"/>
						</g>
					</g>
					<g>
						<g>
							<path style="fill:#F2EEDD;" d="M273.496,189.156c0.71,0.541,8.392,6.822,15.877,12.988
								c7.467,6.173,14.81,12.207,14.524,12.613c-0.286,0.406-8.243-4.753-16.403-10.012c-8.15-5.272-16.467-10.694-17.198-11.207
								c-1.468-1.017-1.934-2.863-1.036-4.12C270.14,188.148,272.09,188.071,273.496,189.156z"/>
						</g>
						<g>
							<path style="fill:#F2EEDD;" d="M294.227,190.779c0.374,0.353,4.413,4.388,8.33,8.364c3.914,3.98,7.72,7.886,7.519,8.094
								c-0.198,0.211-4.414-3.283-8.691-6.859c-4.276-3.582-8.622-7.281-9.003-7.626c-0.766-0.686-0.988-1.713-0.454-2.257
								C292.452,189.945,293.482,190.072,294.227,190.779z"/>
						</g>
						<g>
							<path style="fill:#F2EEDD;" d="M296.65,177.183c0.458,0.526,5.359,6.529,10.116,12.425c4.75,5.903,9.384,11.675,9.087,11.929
								c-0.302,0.249-5.54-4.983-10.889-10.335c-5.345-5.363-10.782-10.882-11.255-11.394c-0.942-1.008-1.09-2.493-0.235-3.212
								C294.317,175.863,295.739,176.127,296.65,177.183z"/>
						</g>
						<g>
							<path style="fill:#F2EEDD;" d="M276.588,208.894c0.507,0.296,6.045,3.75,11.437,7.165c5.388,3.421,10.643,6.78,10.478,7.066
								c-0.165,0.285-5.754-2.492-11.465-5.352c-5.707-2.866-11.522-5.836-12.036-6.119c-1.031-0.561-1.506-1.648-1.058-2.427
								C274.392,208.447,275.576,208.299,276.588,208.894z"/>
						</g>
					</g>
					<g>
						<g>
							<path style="fill:#F2EEDD;" d="M330.269,147.49c0.308,0.844,3.373,10.259,6.353,19.513c2.962,9.254,5.883,18.288,5.422,18.47
								c-0.46,0.183-4.375-8.459-8.408-17.293c-4.017-8.84-8.095-17.894-8.433-18.72c-0.687-1.648-0.078-3.448,1.361-4.014
								C328.003,144.874,329.663,145.794,330.269,147.49z"/>
						</g>
						<g>
							<path style="fill:#F2EEDD;" d="M346.847,160.061c0.124,0.499,1.336,6.076,2.479,11.537
								c1.139,5.467,2.222,10.791,1.946,10.877c-0.277,0.081-1.926-5.116-3.59-10.442c-1.659-5.328-3.314-10.791-3.449-11.287
								c-0.273-0.991,0.1-1.962,0.833-2.17C345.802,158.382,346.605,159.068,346.847,160.061z"/>
						</g>
						<g>
							<path style="fill:#F2EEDD;" d="M356.254,149.943c0.1,0.69,0.964,8.388,1.766,15.917c0.79,7.523,1.558,14.891,1.176,14.968
								c-0.383,0.071-1.95-7.163-3.547-14.569c-1.587-7.408-3.167-14.995-3.288-15.681c-0.248-1.372,0.443-2.644,1.544-2.838
								C355.002,147.524,356.063,148.576,356.254,149.943z"/>
						</g>
						<g>
							<path style="fill:#F2EEDD;" d="M322.218,165.796c0.268,0.522,3.069,6.417,5.768,12.199
								c2.692,5.785,5.306,11.445,5.012,11.594c-0.294,0.149-3.504-5.206-6.773-10.695c-3.261-5.491-6.549-11.114-6.831-11.632
								c-0.571-1.037-0.388-2.215,0.414-2.62C320.608,164.232,321.687,164.749,322.218,165.796z"/>
						</g>
					</g>
					<g>
						<g>
							<path style="fill:#F2EEDD;" d="M400.56,143.187c-0.196,0.871-2.704,10.474-5.188,19.852
								c-2.501,9.376-4.916,18.535-5.398,18.425c-0.489-0.084,0.881-9.46,2.255-19.066c1.391-9.602,2.848-19.42,3.009-20.298
								c0.312-1.758,1.799-2.963,3.32-2.685C400.067,139.752,400.962,141.448,400.56,143.187z"/>
						</g>
						<g>
							<path style="fill:#F2EEDD;" d="M407.728,162.707c-0.165,0.486-2.157,5.838-4.145,11.056
								c-1.993,5.216-3.963,10.303-4.236,10.21c-0.273-0.093,1.148-5.368,2.625-10.757c1.482-5.388,3.041-10.885,3.195-11.375
								c0.305-0.981,1.137-1.579,1.859-1.335C407.748,160.749,408.062,161.735,407.728,162.707z"/>
						</g>
						<g>
							<path style="fill:#F2EEDD;" d="M421.11,159.268c-0.289,0.635-3.721,7.584-7.115,14.359
								c-3.404,6.771-6.734,13.383-7.089,13.222c-0.355-0.161,2.24-7.11,4.898-14.213c2.663-7.086,5.428-14.322,5.698-14.965
								c0.536-1.297,1.807-2.001,2.821-1.529C421.342,156.602,421.694,158.002,421.11,159.268z"/>
						</g>
						<g>
							<path style="fill:#F2EEDD;" d="M383.908,154.199c-0.057,0.584-0.885,7.061-1.739,13.391
								c-0.861,6.328-1.722,12.511-2.052,12.487c-0.329-0.024-0.138-6.257,0.079-12.635c0.224-6.378,0.498-12.899,0.54-13.484
								c0.08-1.171,0.87-2.066,1.766-1.998C383.398,152.027,384.027,153.031,383.908,154.199z"/>
						</g>
					</g>
					<g>
						<g>
							<path style="fill:#F2EEDD;" d="M462.041,177.561c-0.636,0.626-7.941,7.341-15.104,13.878
								c-7.166,6.516-14.189,12.94-14.546,12.594c-0.361-0.342,5.873-7.488,12.235-14.822c6.374-7.322,12.92-14.786,13.531-15.437
								c1.215-1.309,3.107-1.508,4.222-0.441C463.509,174.387,463.318,176.319,462.041,177.561z"/>
						</g>
						<g>
							<path style="fill:#F2EEDD;" d="M457.499,197.855c-0.402,0.32-4.968,3.747-9.458,7.063c-4.493,3.311-8.898,6.526-9.076,6.297
								c-0.178-0.228,3.873-3.904,8.016-7.63c4.151-3.726,8.428-7.505,8.823-7.834c0.783-0.658,1.841-0.74,2.302-0.133
								C458.576,196.215,458.305,197.217,457.499,197.855z"/>
						</g>
						<g>
							<path style="fill:#F2EEDD;" d="M470.615,202.181c-0.585,0.379-7.223,4.378-13.734,8.251
								c-6.517,3.864-12.886,7.633-13.095,7.304c-0.201-0.335,5.708-4.771,11.77-9.311c6.067-4.531,12.301-9.131,12.875-9.527
								c1.134-0.791,2.616-0.721,3.217,0.221C472.254,200.058,471.79,201.429,470.615,202.181z"/>
						</g>
						<g>
							<path style="fill:#F2EEDD;" d="M442.065,177.829c-0.365,0.46-4.57,5.452-8.716,10.303c-4.152,4.847-8.223,9.57-8.482,9.366
								c-0.259-0.205,3.285-5.343,6.928-10.589c3.648-5.242,7.416-10.575,7.769-11.044c0.702-0.941,1.844-1.255,2.551-0.701
								C442.82,175.719,442.798,176.912,442.065,177.829z"/>
						</g>
					</g>
					<g>
						<g>
							<path style="fill:#F2EEDD;" d="M495.216,239.711c-0.874,0.182-10.661,1.872-20.238,3.493
								c-9.581,1.604-18.937,3.199-19.049,2.716s9.005-3.118,18.327-5.843c9.327-2.709,18.873-5.446,19.739-5.662
								c1.73-0.443,3.419,0.418,3.767,1.925C498.109,237.848,496.966,239.358,495.216,239.711z"/>
						</g>
						<g>
							<path style="fill:#F2EEDD;" d="M480.408,254.314c-0.513,0.051-6.199,0.455-11.773,0.807
								c-5.579,0.347-11.034,0.662-11.072,0.375c-0.038-0.287,5.343-1.177,10.854-2.064c5.512-0.881,11.157-1.738,11.667-1.801
								c1.019-0.129,1.923,0.379,2.019,1.135C482.206,253.521,481.439,254.215,480.408,254.314z"/>
						</g>
						<g>
							<path style="fill:#F2EEDD;" d="M489.096,265.054c-0.697,0.001-8.448-0.229-16.029-0.499
								c-7.58-0.28-14.988-0.562-14.999-0.954c-0.011-0.392,7.376-0.921,14.937-1.453c7.561-0.522,15.297-1.011,15.994-1.033
								c1.393-0.051,2.547,0.812,2.574,1.927C491.601,264.158,490.491,265.059,489.096,265.054z"/>
						</g>
						<g>
							<path style="fill:#F2EEDD;" d="M478.246,229.119c-0.555,0.19-6.789,2.118-12.897,3.961c-6.11,1.836-12.084,3.612-12.189,3.3
								c-0.108-0.311,5.667-2.727,11.548-5.17c5.89-2.438,11.934-4.891,12.485-5.095c1.098-0.413,2.268-0.075,2.544,0.781
								C480.027,227.748,479.359,228.743,478.246,229.119z"/>
						</g>
					</g>
				</g>
			</g>
			<g>
				<g>
					<g>
						<g>
							
								<ellipse transform="matrix(0.7071 -0.7071 0.7071 0.7071 80.6122 416.6249)" style="fill:#FFFFFF;" cx="543.217" cy="111.005" rx="41.07" ry="41.07"/>
						</g>
					</g>
					<g>
						<g>
							<g>
								<g>
									<g>
										<rect x="541.687" y="62.773" style="fill:#474056;" width="5.093" height="61.631"/>
									</g>
								</g>
								<g>
									<g>
										<path style="fill:#FF7300;" d="M539.649,51.896v28.54c15.76-1.823,31.07-1.429,46.86-3.401
											C571.003,70.903,554.052,60.667,539.649,51.896z"/>
									</g>
								</g>
							</g>
							<g>
								<g>
									<path style="fill:#474056;" d="M550.19,94.481v13.313c3.595,2.169,6.007,6.1,6.007,10.604
										c0,6.842-5.547,12.389-12.389,12.389c-6.842,0-12.389-5.547-12.389-12.389c0-4.661,2.578-8.717,6.382-10.832V94.384
										c-10.776,2.689-18.771,12.405-18.771,24.014c0,13.684,11.093,24.778,24.778,24.778c13.684,0,24.778-11.093,24.778-24.778
										C568.586,106.924,560.776,97.3,550.19,94.481z"/>
								</g>
							</g>
						</g>
					</g>
				</g>
				<g>
					<text transform="matrix(1 0 0 1 534.3137 168.3693)" style="font-family:'Montserrat-Regular'; font-size:15.5743px;">OBJECTIVE</text>
				</g>
			</g>
			<g>
				<g>
					<text transform="matrix(1 0 0 1 551.8138 308.8693)" style="font-family:'Montserrat-Regular'; font-size:15.5743px;">CONTROLLING</text>
				</g>
				<g>
					<g>
						<circle style="fill:#FFFFFF;" cx="616.46" cy="243.851" r="48.337"/>
					</g>
					<g>
						<g>
							<g>
								<circle style="fill:#EED2BF;" cx="609.03" cy="231.359" r="18.616"/>
							</g>
							<g>
								<polygon style="fill:#FF7300;" points="587.229,212.66 579.023,220.866 605.11,241.81 641.853,212.171 634.26,205.802 
									605.11,234.461 								"/>
							</g>
						</g>
						<g>
							<g>
								<path style="fill:#474056;" d="M614.1,252.009c-3.376,1.15-7.242,1.529-9.773,4.041c-3.671,3.644-2.806,9.683-1.678,14.73
									c8.832,0.075,14.613,3.247,23.445,3.322c0-5.389,3.449-9.734,6.001-12.003c3.307-2.939,5.257-3.876,7.716-6.246
									c10.165-9.798,14.744-20.3,13.223-32.646c-0.074-0.6-0.184-1.24-0.602-1.677c-0.778-0.81-2.238-0.441-2.948,0.43
									c-0.709,0.871-0.885,2.044-1.084,3.15c-2.001,11.106-8.722,21.793-18.632,27.191c-0.98,0-1.491-0.167-0.735-2.327
									c4.899-6.491,6.859-10.288,5.634-15.432c-3.751,0.908-5.159,3.11-7.226,6.369
									C624.488,245.568,618.991,250.342,614.1,252.009z"/>
							</g>
							<g>
								<path style="fill:#98A9D8;" d="M600.261,281.668c9.463,0.145,18.932-0.095,28.379-0.719
									c0.077-1.424,0.154-2.848,0.231-4.272c-9.674,0.769-19.063-6.196-28.615-4.346
									C600.716,275.416,600.718,278.583,600.261,281.668z"/>
							</g>
							<g>
								<circle style="fill:#FFFFFF;" cx="606.498" cy="277.165" r="2.572"/>
							</g>
						</g>
					</g>
				</g>
			</g>
			<g>
				<g>
					<text transform="matrix(1 0 0 1 156.5452 146.0583)" style="font-family:'Montserrat-Regular'; font-size:15.5743px;">PRIORITY</text>
				</g>
				<g>
					<g>
						
							<ellipse transform="matrix(0.1582 -0.9874 0.9874 0.1582 87.575 283.5831)" style="fill:#FFFFFF;" cx="210.109" cy="90.429" rx="39.764" ry="39.764"/>
					</g>
					<g>
						<g>
							
								<ellipse transform="matrix(0.7071 -0.7071 0.7071 0.7071 -2.4491 175.6692)" style="fill:#474056;" cx="210.827" cy="90.791" rx="32.432" ry="32.432"/>
						</g>
						<g>
							<g>
								<polygon style="fill:#FF7300;" points="217.641,78.489 203.668,81.193 203.668,40.625 217.641,43.33 								"/>
							</g>
							<g>
								<polygon style="fill:#F2EEDD;" points="217.641,95.548 203.668,99.323 203.668,86.251 217.641,84.219 								"/>
							</g>
						</g>
					</g>
				</g>
			</g>
			<g>
				<g>
					<circle style="fill:#FFFFFF;" cx="597.776" cy="382.342" r="50.624"/>
				</g>
				<g>
					<g>
						
							<ellipse transform="matrix(0.1618 -0.9868 0.9868 0.1618 118.6049 912.4911)" style="fill:#353A68;" cx="596.47" cy="386.425" rx="32.964" ry="32.965"/>
					</g>
					<g>
						
							<ellipse transform="matrix(0.9264 -0.3764 0.3764 0.9264 -101.59 252.9595)" style="fill:#FF7300;" cx="596.47" cy="386.425" rx="27.086" ry="27.086"/>
					</g>
					<g>
						
							<ellipse transform="matrix(0.7071 -0.7071 0.7071 0.7071 -65.1381 546.4451)" style="fill:#F2EEDD;" cx="627.048" cy="351.851" rx="23.679" ry="23.679"/>
					</g>
					<g>
						<path style="fill:#FF7300;" d="M635.336,352.759v-8.629c0-4.168-3.379-7.547-7.547-7.547h-1.153
							c-4.168,0-7.547,3.379-7.547,7.547v8.629c0,1.808-0.561,3.572-1.606,5.048l-3.008,4.25h25.475l-3.008-4.25
							C635.897,356.331,635.336,354.567,635.336,352.759z"/>
					</g>
					<g>
						<g>
							<path style="fill:#474056;" d="M615.639,349.147c-1.337-3.065-1.134-6.758,0.531-9.658s4.752-4.937,8.074-5.327
								c-2.797,1.193-5.034,3.507-6.446,6.2C616.387,343.056,615.76,346.109,615.639,349.147z"/>
						</g>
						<g>
							<path style="fill:#474056;" d="M612.27,343.581c-0.585-1.481-0.464-3.224,0.321-4.61c0.785-1.386,2.217-2.386,3.789-2.646
								C614.17,338.117,612.671,340.763,612.27,343.581z"/>
						</g>
						<g>
							<path style="fill:#474056;" d="M643.582,345.395c-0.463-1.689-1.202-3.424-2.653-4.405c0.805,2.779,1.561,5.605,1.644,8.497
								c0.083,2.892-0.565,5.891-2.327,8.185c1.963-1.162,3.247-3.279,3.725-5.51C644.448,349.931,644.185,347.595,643.582,345.395z
								"/>
						</g>
						<g>
							<path style="fill:#474056;" d="M636.209,368.569c4.327-0.853,8.213-3.72,10.306-7.602c2.092-3.882,2.35-8.705,0.684-12.788
								C646.923,356.174,642.736,363.943,636.209,368.569z"/>
						</g>
					</g>
				</g>
				<g>
					<text transform="matrix(1 0 0 1 554.9671 451.5969)" style="font-family:'Montserrat-Regular'; font-size:15.5743px;">ALERTS</text>
				</g>
				<g>
					<g>
						<path style="fill:#FFFFFF;" d="M599.074,394.078h-3.155v-21.739c0-0.863,0.699-1.562,1.562-1.562h0.032
							c0.863,0,1.562,0.699,1.562,1.562V394.078z"/>
					</g>
					<g>
						<path style="fill:#FFFFFF;" d="M601.458,388.996l-0.811,3.049l-17.373-4.62c-0.834-0.222-1.33-1.077-1.108-1.911l0.008-0.03
							c0.222-0.834,1.077-1.33,1.911-1.108L601.458,388.996z"/>
					</g>
				</g>
				<g>
					<g>
						<g>
							<g>
								<path style="fill:#FFFFFF;" d="M598.296,364.305c0,0.935-0.758,1.693-1.693,1.693c-0.935,0-1.693-0.758-1.693-1.693
									c0-0.935,0.758-1.693,1.693-1.693C597.538,362.612,598.296,363.37,598.296,364.305z"/>
							</g>
							<g>
								<circle style="fill:#FFFFFF;" cx="596.603" cy="406.848" r="1.693"/>
							</g>
						</g>
						<g>
							<g>
								<circle style="fill:#FFFFFF;" cx="575.332" cy="385.577" r="1.693"/>
							</g>
							<g>
								<circle style="fill:#FFFFFF;" cx="617.875" cy="385.577" r="1.693"/>
							</g>
						</g>
					</g>
					<g>
						<g>
							<g>
								<path style="fill:#FFFFFF;" d="M586.662,366.695c0.5,0.79,0.265,1.836-0.526,2.335c-0.79,0.5-1.836,0.264-2.335-0.526
									c-0.5-0.79-0.265-1.836,0.525-2.335C585.116,365.67,586.162,365.905,586.662,366.695z"/>
							</g>
							<g>
								<path style="fill:#FFFFFF;" d="M609.406,402.648c0.5,0.79,0.264,1.836-0.526,2.335c-0.79,0.5-1.836,0.264-2.335-0.525
									c-0.5-0.79-0.264-1.836,0.526-2.336C607.861,401.623,608.906,401.858,609.406,402.648z"/>
							</g>
						</g>
						<g>
							<g>
								<path style="fill:#FFFFFF;" d="M577.722,395.518c0.79-0.5,1.836-0.264,2.336,0.526c0.5,0.79,0.265,1.836-0.526,2.335
									c-0.79,0.5-1.836,0.264-2.335-0.525C576.697,397.064,576.932,396.018,577.722,395.518z"/>
							</g>
							<g>
								<path style="fill:#FFFFFF;" d="M613.675,372.774c0.79-0.5,1.836-0.264,2.335,0.526c0.5,0.79,0.265,1.836-0.526,2.335
									c-0.79,0.5-1.836,0.264-2.335-0.526C612.65,374.319,612.885,373.274,613.675,372.774z"/>
							</g>
						</g>
					</g>
					<g>
						<g>
							<g>
								<path style="fill:#FFFFFF;" d="M578.642,374.055c0.825,0.441,1.136,1.466,0.695,2.291c-0.441,0.824-1.466,1.135-2.291,0.695
									c-0.824-0.441-1.135-1.466-0.695-2.291C576.792,373.925,577.818,373.614,578.642,374.055z"/>
							</g>
							<g>
								<path style="fill:#FFFFFF;" d="M616.161,394.113c0.824,0.441,1.135,1.466,0.695,2.291c-0.441,0.824-1.466,1.135-2.291,0.695
									c-0.824-0.441-1.135-1.466-0.695-2.291C614.311,393.983,615.336,393.672,616.161,394.113z"/>
							</g>
						</g>
						<g>
							<g>
								<path style="fill:#FFFFFF;" d="M585.082,403.538c0.441-0.825,1.466-1.135,2.291-0.695c0.825,0.441,1.135,1.466,0.695,2.291
									c-0.441,0.824-1.466,1.135-2.291,0.695C584.952,405.388,584.641,404.362,585.082,403.538z"/>
							</g>
							<g>
								<path style="fill:#FFFFFF;" d="M605.14,366.02c0.441-0.825,1.466-1.136,2.291-0.695c0.824,0.441,1.135,1.466,0.695,2.291
									c-0.441,0.824-1.466,1.135-2.291,0.695C605.01,367.87,604.699,366.844,605.14,366.02z"/>
							</g>
						</g>
					</g>
				</g>
			</g>
			<g>
				<g>
					<text transform="matrix(1 0 0 1 101.8802 236.1616)" style="font-family:'Montserrat-Regular'; font-size:15.5743px;">SCHEDULE</text>
				</g>
				<g>
					<g>
						
							<ellipse transform="matrix(0.2263 -0.9741 0.9741 0.2263 -56.426 303.6617)" style="fill:#FFFFFF;" cx="162.929" cy="187.349" rx="35.952" ry="35.952"/>
					</g>
					<g>
						<g>
							<g>
								<path style="fill:#474056;" d="M91.964,215.125h70.503c1.455,0,2.527-1.179,2.395-2.634l-4.447-48.947
									c-0.132-1.455-1.419-2.634-2.874-2.634H87.038c-1.455,0-2.527,1.18-2.395,2.634l4.447,48.947
									C89.222,213.945,90.508,215.125,91.964,215.125z"/>
							</g>
							<g>
								<path style="fill:#7D95C9;" d="M152.639,215.125H82.135c-1.455,0-2.527-1.179-2.395-2.634l4.447-48.947
									c0.132-1.455,1.419-2.634,2.874-2.634h70.503c1.455,0,2.527,1.18,2.395,2.634l-4.447,48.947
									C155.38,213.945,154.094,215.125,152.639,215.125z"/>
							</g>
							<g>
								<g>
									<g>
										<polygon style="fill:#FFFFFF;" points="105.331,187.404 90.879,187.404 92.192,172.952 106.644,172.952 										"/>
									</g>
									<g>
										<polygon style="fill:#FFFFFF;" points="127.132,187.404 112.679,187.404 113.993,172.952 128.445,172.952 										"/>
									</g>
									<g>
										<polygon style="fill:#FFFFFF;" points="148.933,187.404 134.48,187.404 135.793,172.952 150.246,172.952 										"/>
									</g>
								</g>
								<g>
									<g>
										<polygon style="fill:#FF7300;" points="103.361,209.083 88.909,209.083 90.222,194.63 104.674,194.63 										"/>
									</g>
									<g>
										<polygon style="fill:#FFFFFF;" points="125.162,209.083 110.71,209.083 112.023,194.63 126.475,194.63 										"/>
									</g>
									<g>
										<polygon style="fill:#FFFFFF;" points="146.963,209.083 132.511,209.083 133.824,194.63 148.276,194.63 										"/>
									</g>
								</g>
							</g>
						</g>
						<g>
							<g>
								<g>
									<circle style="fill:#F2EEDD;" cx="94.018" cy="165.522" r="2.388"/>
								</g>
								<g>
									<path style="fill:#353A68;" d="M94.875,164.971c0,0.44-0.356,0.796-0.796,0.796l0,0c-0.44,0-0.796-0.356-0.796-0.796
										v-6.981c0-0.44,0.356-0.796,0.796-0.796l0,0c0.44,0,0.796,0.356,0.796,0.796V164.971z"/>
								</g>
							</g>
							<g>
								<g>
									<path style="fill:#F2EEDD;" d="M107.735,165.522c0,1.319-1.069,2.388-2.388,2.388c-1.319,0-2.388-1.069-2.388-2.388
										s1.069-2.388,2.388-2.388C106.666,163.133,107.735,164.203,107.735,165.522z"/>
								</g>
								<g>
									<path style="fill:#353A68;" d="M106.204,164.971c0,0.44-0.356,0.796-0.796,0.796l0,0c-0.44,0-0.796-0.356-0.796-0.796
										v-6.981c0-0.44,0.356-0.796,0.796-0.796l0,0c0.44,0,0.796,0.356,0.796,0.796V164.971z"/>
								</g>
							</g>
							<g>
								<g>
									<circle style="fill:#F2EEDD;" cx="116.676" cy="165.522" r="2.388"/>
								</g>
								<g>
									<path style="fill:#353A68;" d="M117.533,164.971c0,0.44-0.356,0.796-0.796,0.796l0,0c-0.44,0-0.796-0.356-0.796-0.796
										v-6.981c0-0.44,0.356-0.796,0.796-0.796l0,0c0.44,0,0.796,0.356,0.796,0.796V164.971z"/>
								</g>
							</g>
							<g>
								<g>
									<circle style="fill:#F2EEDD;" cx="128.005" cy="165.522" r="2.388"/>
								</g>
								<g>
									<path style="fill:#353A68;" d="M128.862,164.971c0,0.44-0.356,0.796-0.796,0.796l0,0c-0.44,0-0.796-0.356-0.796-0.796
										v-6.981c0-0.44,0.356-0.796,0.796-0.796l0,0c0.44,0,0.796,0.356,0.796,0.796V164.971z"/>
								</g>
							</g>
							<g>
								<g>
									<circle style="fill:#F2EEDD;" cx="139.334" cy="165.522" r="2.388"/>
								</g>
								<g>
									<path style="fill:#353A68;" d="M140.191,164.971c0,0.44-0.356,0.796-0.796,0.796l0,0c-0.44,0-0.796-0.356-0.796-0.796
										v-6.981c0-0.44,0.356-0.796,0.796-0.796l0,0c0.44,0,0.796,0.356,0.796,0.796V164.971z"/>
								</g>
							</g>
							<g>
								<g>
									<path style="fill:#F2EEDD;" d="M153.051,165.522c0,1.319-1.069,2.388-2.388,2.388c-1.319,0-2.388-1.069-2.388-2.388
										s1.069-2.388,2.388-2.388C151.982,163.133,153.051,164.203,153.051,165.522z"/>
								</g>
								<g>
									<path style="fill:#353A68;" d="M151.52,164.971c0,0.44-0.356,0.796-0.796,0.796l0,0c-0.44,0-0.796-0.356-0.796-0.796
										v-6.981c0-0.44,0.356-0.796,0.796-0.796l0,0c0.44,0,0.796,0.356,0.796,0.796V164.971z"/>
								</g>
							</g>
						</g>
					</g>
				</g>
			</g>
			<g>
				<g>
					<text transform="matrix(1 0 0 1 165.364 462.3742)" style="font-family:'Montserrat-Regular'; font-size:15.5743px;">EFICIENCY</text>
				</g>
				<g>
					<g>
						
							<ellipse transform="matrix(0.7071 -0.7071 0.7071 0.7071 -227.7352 250.2975)" style="fill:#FFFFFF;" cx="188.268" cy="400.049" rx="46.091" ry="46.091"/>
					</g>
					<g>
						<g>
							<g>
								<path style="fill:#474056;" d="M201.178,402.07c3.2,1.574,6.202,4.039,9.768,4.053c5.172,0.019,8.831-4.862,11.602-9.23
									c-6.192-6.298-8.038-12.629-14.229-18.927c-3.811,3.81-9.322,4.444-12.731,4.243c-4.417-0.26-6.458-0.976-9.873-1.039
									c-14.116-0.26-24.78,3.928-32.434,13.734c-0.372,0.477-0.747,1.007-0.76,1.612c-0.023,1.123,1.271,1.895,2.388,1.78
									c1.118-0.114,2.071-0.82,2.994-1.461c9.268-6.438,21.578-9.242,32.402-6.052c0.693,0.693,0.937,1.172-1.126,2.165
									c-8.054,1.126-12.125,2.425-14.896,6.928c3.295,2.01,5.847,1.449,9.613,0.606
									C189.278,399.279,196.541,399.79,201.178,402.07z"/>
							</g>
							<g>
								<path style="fill:#98A9D8;" d="M231.936,390.884c-6.589-6.794-13.454-13.319-20.575-19.559
									c-1.061,0.952-2.123,1.905-3.184,2.857c7.384,6.297,9.099,17.861,17.161,23.307
									C227.193,394.982,229.431,392.742,231.936,390.884z"/>
							</g>
							<g>
								<path style="fill:#FFFFFF;" d="M222.522,387.839c1.004-1.004,2.633-1.004,3.637,0c1.004,1.004,1.004,2.633,0,3.637
									c-1.005,1.004-2.633,1.004-3.637,0C221.518,390.472,221.518,388.843,222.522,387.839z"/>
							</g>
						</g>
						<g>
							<g>
								<rect x="162.345" y="412.052" style="fill:#E7A988;" width="50.624" height="25.312"/>
							</g>
							<g>
								<polygon style="fill:#FF7300;" points="162.345,437.364 212.969,412.052 209.948,407.806 230.034,407.153 223.992,424.79 
									220.236,419.727 186.759,437.364 162.345,437.364 								"/>
							</g>
						</g>
					</g>
				</g>
			</g>
			<g>
				<g>
					<text transform="matrix(1 0 0 1 90.4758 350.6961)" style="font-family:'Montserrat-Regular'; font-size:15.5743px;">REMINDER</text>
				</g>
				<g>
					<g>
						
							<ellipse transform="matrix(0.2199 -0.9755 0.9755 0.2199 -191.5931 353.2697)" style="fill:#FFFFFF;" cx="125.096" cy="296.434" rx="40.172" ry="40.172"/>
					</g>
					<g>
						<g>
							<g>
								<g>
									<path style="fill:#474056;" d="M149.543,287.359c0.133,1.157-0.336,2.294-0.413,3.456c-0.086,1.291,0.313,2.567,0.344,3.86
										c0.077,3.273-2.139,6.085-4.064,8.733c-5.981,8.231-8.071,9.653-8.717,19.807c-7.397-0.613-17.026,1.374-24.495,4.572
										c0.937-9.077,2.387-13.69-2.879-19.114c-1.018-1.049-2.193-2.017-2.779-3.356c-0.771-1.762-0.368-3.79-0.564-5.703
										c-0.45-4.403-4.08-8.233-3.643-12.637c0.124-1.245,0.573-2.432,1.018-3.601c1.858-4.88,3.716-9.76,5.575-14.64
										c2.253-0.183,3.889,2.319,3.966,4.578c0.077,2.259-0.831,4.433-1.065,6.681c-0.473,4.555,1.184,7.517,4.534,10.64
										c6.373-4.461,10.604-22.912,15.54-35.129c0.884-2.188,3.299-5.63,5.648-5.411c1.439,0.135,1.572,1.057,1.96,2.45
										c0.388,1.393-0.557,4.587-0.857,6.001c-0.947,4.458-1.895,8.186-3.655,12.39c1.862-0.844,4.257-0.289,5.557,1.288
										c1.3,1.577,1.388,4.035,0.205,5.701c1.652-0.208,3.389,0.655,4.223,2.097c0.833,1.442,0.713,3.378-0.291,4.706
										C146.62,283.767,149.298,285.218,149.543,287.359z"/>
								</g>
							</g>
							<path style="fill:#FF7300;" d="M152.134,256.565c-0.342-0.849-1.145-1.507-2.15-1.762c-0.717-0.182-1.686-0.128-2.305-0.048
								c-3.216,0.412-6.278,1.544-8.989,3.285c-1.008-2.797-2.776-5.308-5.097-7.177c-0.5-0.402-1.113-0.843-1.856-1.057
								c-0.921-0.265-1.906-0.1-2.574,0.443c-0.704,0.572-1.064,1.56-0.938,2.577c0.097,0.786,0.44,1.469,0.796,2.09
								c0.895,1.56,2.319,2.54,3.866,3.344c-1.369,0.115-2.73,0.336-4.062,0.671c-1.153,0.29-0.153,2.587-0.146,3.776
								c2.456-0.906,5.13-1.193,7.727-0.869c-1.188,2.448-2.804,4.695-4.758,6.581l1.389,1.439c2.032-1.96,3.733-4.279,5.007-6.805
								c1.471,3.194,4.099,5.854,7.336,7.261l0.798-1.834c-2.89-1.257-5.21-3.676-6.445-6.564l0.034,0.022l-0.097-0.381
								c0.604,0.049,1.226,0.08,1.885,0.08c2.035,0,4.113-0.235,5.945-0.442c0.978-0.11,2.195-0.248,3.23-0.916
								C151.846,259.559,152.717,258.013,152.134,256.565z M130.757,253.92c-0.291-0.507-0.495-0.929-0.545-1.338
								c-0.04-0.324,0.048-0.646,0.215-0.781c0.095-0.078,0.246-0.12,0.423-0.12c0.109,0,0.225,0.017,0.335,0.048
								c0.401,0.115,0.792,0.401,1.155,0.692c1.754,1.414,3.154,3.243,4.073,5.293c-0.244-0.113-0.488-0.225-0.731-0.335
								C133.636,256.449,131.705,255.57,130.757,253.92z M149.646,258.598c-0.641,0.414-1.56,0.518-2.371,0.609
								c-2.288,0.259-5.03,0.543-7.295,0.375c2.41-1.495,5.163-2.486,7.955-2.843c0.548-0.072,1.136-0.105,1.559,0.003
								c0.376,0.095,0.685,0.318,0.786,0.568C150.428,257.683,150.132,258.284,149.646,258.598z"/>
						</g>
						<g>
							<g>
								<g>
									<path style="fill:#98A9D8;" d="M114.377,328.89c8.007-3.008,16.539-4.611,25.092-4.713
										c-0.88,3.057-1.431,6.209-1.639,9.383c-9.445-1.015-19.024-0.776-28.407,0.709c-0.207-1.309,0.481-2.633,1.47-3.515
										C111.882,329.872,113.137,329.356,114.377,328.89z"/>
								</g>
							</g>
							<g>
								<path style="fill:#FFFFFF;" d="M135.223,329.013c0,1.308-1.06,2.368-2.368,2.368c-1.308,0-2.368-1.06-2.368-2.368
									c0-1.308,1.06-2.368,2.368-2.368C134.163,326.645,135.223,327.705,135.223,329.013z"/>
							</g>
						</g>
					</g>
				</g>
			</g>
		</g>
		<g>
			<g>
				<path style="fill:#FF7300;" d="M514.83,54.246c0,3.097-2.511,5.607-5.607,5.607H261.931c-3.097,0-5.608-2.51-5.608-5.607V23.405
					c0-3.097,2.511-5.608,5.608-5.608h247.292c3.097,0,5.607,2.511,5.607,5.608V54.246z"/>
			</g>
			<g>
				<text transform="matrix(1 0 0 1 273.47 46.0358)" style="fill:#FFFFFF; font-family:'Montserrat-Bold'; font-size:21.2944px;">TIME MANAGEMENT</text>
			</g>
		</g>
		<g>
			<g>
				<path style="fill:#98A9D8;" d="M453.602,441.287c2.647-1.709,4.075-3.519,4.075-5.393c0-10.462-44.306-18.943-98.961-18.943
					c-54.655,0-98.961,8.481-98.961,18.943c0,10.462,44.306,18.943,98.961,18.943c4.682,0,9.286-0.064,13.794-0.184
					c0.703,1.011,1.274,2.112,1.665,3.284c1.674,5.018,0.062,10.969-3.917,14.455c5.827,3.6,13.421,2.884,19.817,0.435
					c6.396-2.449,12.085-6.434,18.298-9.315c14.921-6.92,31.957-7.141,48.405-7.238c14.648-0.086,29.297-0.171,43.945-0.257
					C486.346,447.74,470.128,442.701,453.602,441.287z"/>
			</g>
			<g>
				<g>
					<g>
						<g>
							<path style="fill:#EED2BF;" d="M451.283,166.953c0,18.012-42.664,31.479-95.266,32.613
								c-52.132,1.125-94.386-12.55-95.266-32.614c-0.789-17.995,42.652-32.613,95.266-32.613S451.283,148.941,451.283,166.953z"/>
						</g>
						<g>
							<path style="fill:#6F5869;" d="M350.056,200.006c-51.125,0-88.84-13.894-89.679-33.037
								c-0.159-3.624,1.408-7.183,4.657-10.577c12.84-13.415,49.403-22.428,90.983-22.428c52.736,0,95.641,14.798,95.641,32.988
								c0,8.759-10.002,16.924-28.163,22.991c-17.625,5.889-41.586,9.439-67.469,9.998
								C354.037,199.984,352.029,200.006,350.056,200.006z M356.018,134.714c-40.742,0-77.933,9.127-90.441,22.196
								c-3.103,3.241-4.6,6.614-4.45,10.025c0.397,9.064,9.706,17.316,26.213,23.238c16.326,5.857,38.6,9.082,62.717,9.082
								c1.968,0,3.971-0.021,5.954-0.064c54.101-1.168,94.899-15.027,94.899-32.239
								C450.908,149.176,408.341,134.714,356.018,134.714z"/>
						</g>
					</g>
					<g>
						<ellipse style="fill:#E7A988;" cx="356.012" cy="171.854" rx="77.044" ry="26.375"/>
					</g>
					<g>
						<path style="fill:#6F5869;" d="M318.276,152.774c-0.174,0-0.33-0.122-0.367-0.299c-0.042-0.203,0.088-0.401,0.291-0.443
							c3.864-0.804,7.823-1.308,11.765-1.496c0.211-0.02,0.383,0.149,0.393,0.356s-0.15,0.383-0.356,0.393
							c-3.903,0.187-7.823,0.686-11.649,1.482C318.327,152.771,318.301,152.774,318.276,152.774z"/>
					</g>
					<g>
						<path style="fill:#6F5869;" d="M346.15,150.413c-0.194,0-0.358-0.149-0.374-0.346c-0.016-0.207,0.139-0.387,0.345-0.403
							c6.664-0.519,13.432-0.719,20.118-0.592c0.207,0.004,0.372,0.175,0.368,0.382c-0.004,0.208-0.193,0.379-0.382,0.368
							c-6.661-0.126-13.406,0.073-20.045,0.59C346.169,150.413,346.16,150.413,346.15,150.413z"/>
					</g>
					<g>
						<g>
							<ellipse style="fill:#EED2BF;" cx="356.012" cy="185.263" rx="95.266" ry="32.614"/>
						</g>
						<g>
							<path style="fill:#6F5869;" d="M356.012,218.251c-52.737,0-95.641-14.798-95.641-32.988c0-18.19,42.904-32.989,95.641-32.989
								s95.641,14.799,95.641,32.989C451.653,203.453,408.749,218.251,356.012,218.251z M356.012,153.024
								c-52.323,0-94.891,14.462-94.891,32.239s42.568,32.238,94.891,32.238c52.323,0,94.891-14.462,94.891-32.238
								S408.335,153.024,356.012,153.024z"/>
						</g>
					</g>
					<g>
						<ellipse style="fill:#98A9D8;" cx="356.012" cy="188.859" rx="82.477" ry="28.235"/>
					</g>
					<g>
						<ellipse style="fill:#353A68;" cx="356.012" cy="192.029" rx="75.502" ry="25.847"/>
					</g>
					<g>
						<g>
							<g>
								<ellipse style="fill:#EED2BF;" cx="356.012" cy="420.264" rx="95.266" ry="32.614"/>
							</g>
							<g>
								<path style="fill:#6F5869;" d="M356.012,453.253c-52.737,0-95.641-14.799-95.641-32.989
									c0-18.19,42.904-32.988,95.641-32.988s95.641,14.799,95.641,32.988C451.653,438.454,408.749,453.253,356.012,453.253z
									 M356.012,388.025c-52.323,0-94.891,14.462-94.891,32.238c0,17.776,42.568,32.239,94.891,32.239
									c52.323,0,94.891-14.463,94.891-32.239C450.903,402.487,408.335,388.025,356.012,388.025z"/>
							</g>
						</g>
						<g>
							<ellipse style="fill:#E7A988;" cx="356.012" cy="413.537" rx="89.65" ry="25.886"/>
						</g>
						<g>
							<g>
								<ellipse style="fill:#EED2BF;" cx="356.012" cy="401.954" rx="95.266" ry="32.614"/>
							</g>
							<g>
								<path style="fill:#6F5869;" d="M356.012,434.942c-52.737,0-95.641-14.799-95.641-32.988
									c0-18.19,42.904-32.989,95.641-32.989s95.641,14.799,95.641,32.989C451.653,420.144,408.749,434.942,356.012,434.942z
									 M356.012,369.715c-52.323,0-94.891,14.463-94.891,32.239s42.568,32.238,94.891,32.238
									c52.323,0,94.891-14.462,94.891-32.238S408.335,369.715,356.012,369.715z"/>
							</g>
						</g>
						<g>
							<ellipse style="fill:#98A9D8;" cx="356.012" cy="397.679" rx="83.92" ry="26.84"/>
						</g>
						<g>
							<ellipse style="fill:#353A68;" cx="356.012" cy="395.173" rx="77.262" ry="25.833"/>
						</g>
					</g>
					<g>
						<path style="fill:#EED2BF;" d="M366.3,295.346v-3.006c0-12.628,6.773-24.234,17.679-30.6
							c24.954-14.567,42.412-52.896,42.412-62.8c0-13.307-31.51-24.094-70.379-24.094c-38.869,0-70.379,10.787-70.379,24.094
							c0,10.042,17.949,48.471,43.46,62.95c11.114,6.308,18.047,18.03,18.047,30.809v2.287c0,12.779-6.933,24.501-18.047,30.809
							c-25.511,14.479-43.46,52.909-43.46,62.95c0,13.307,31.51,24.094,70.379,24.094c38.869,0,70.379-10.787,70.379-24.094
							c0-9.904-17.458-48.233-42.412-62.8C373.073,319.58,366.3,307.974,366.3,295.346z"/>
					</g>
					<g>
						<path style="fill:#F9F6F3;" d="M356.012,410.303c-39.981,0-67.843-11.361-67.843-21.557c0-8.896,17.5-46.74,42.176-60.745
							c11.924-6.767,19.332-19.418,19.332-33.015v-2.287c0-13.596-7.408-26.247-19.332-33.015
							c-24.675-14.005-42.176-51.848-42.176-60.745c0-10.196,27.862-21.557,67.843-21.557c39.981,0,67.843,11.361,67.843,21.557
							c0,8.843-17.077,46.554-41.155,60.61c-11.68,6.818-18.936,19.383-18.936,32.79v3.006c0,13.408,7.256,25.972,18.936,32.79
							c24.078,14.056,41.155,51.767,41.155,60.61C423.855,398.942,395.993,410.303,356.012,410.303z"/>
					</g>
					<g>
						<path style="fill:#EED2BF;" d="M356.012,410.303c-34.998,0-59.388-11.361-59.388-21.557c0-8.896,15.319-46.74,36.92-60.745
							c10.438-6.767,16.922-19.418,16.922-33.015v-2.287c0-13.596-6.484-26.247-16.922-33.015
							c-21.6-14.005-36.92-51.848-36.92-60.745c0-10.196,24.39-21.557,59.388-21.557c34.999,0,59.388,11.361,59.388,21.557
							c0,8.843-14.948,46.554-36.026,60.61c-10.225,6.818-16.577,19.383-16.577,32.79v3.006c0,13.408,6.352,25.972,16.577,32.79
							c21.078,14.056,36.026,51.767,36.026,60.61C415.4,398.942,391.011,410.303,356.012,410.303z"/>
					</g>
					<g>
						<path style="fill:#F9F6F3;" d="M387.817,253.954c10.686-8.947,17.531-22.336,18.526-36.237
							c-31.906-12.938-68.84-12.96-100.761-0.059c1.534,11.43,8.993,21.148,16.996,29.452c8.003,8.303,16.945,15.965,22.761,25.924
							c9.939,17.02,9.288,37.973,8.345,57.661c-0.494,10.317-0.566,41.608-2.982,51.65c-2.416,10.043-2.904,6.176-12.545,9.884
							c-4.942,1.901-7.293,1.02-6.872,4.195c0.446,3.368,4.221,5.084,7.501,5.972c13.897,3.765,28.785,3.803,42.701,0.11
							c2.577-0.684,5.429-1.762,6.438-4.23c1.332-3.259-1.495-6.87-4.73-8.259s-6.903-1.448-10.19-2.708
							c-5.197-1.994-7.071,1.779-8.997-3.444c-1.927-5.223-4.149-19.478-4.537-25.031c-1.376-19.708-2.752-39.461-1.999-59.203
							c0.34-8.921,1.26-18.261,6.206-25.693C369.498,265.194,379.762,260.698,387.817,253.954z"/>
					</g>
					<g>
						<g>
							<path style="fill:#E7A988;" d="M389.573,335.372c-8.186-8.599-17.702-16.07-24.354-25.903
								c5.01,10.017,8.724,20.681,11.021,31.643c5.075,24.222,2.093,44.811,1.501,69.552c12.257-1.082,24.53-3.309,35.273-9.308
								c2.337-1.305,5.765-2.946,6.859-5.389c1.139-2.544,0.421-2.421-0.223-5.133C414.736,370.132,404.243,350.782,389.573,335.372
								z"/>
						</g>
						<g>
							<path style="fill:#E7A988;" d="M375.095,209.688c1.864,19.866-1.04,40.182-8.544,58.676
								c22.92-9.094,40.063-29.612,48.19-53.007C401.647,212.633,388.421,210.637,375.095,209.688z"/>
						</g>
						<g>
							<path style="fill:#E7A988;" d="M374.891,207.712c13.604,0.95,27.107,2.983,40.472,5.774c0.898-2.764,1.677-5.562,2.318-8.385
								c1.621-7.134,2.454-14.547,2.195-21.864c-10.803-2.633-21.782-4.533-32.836-5.77c-6.425-0.719-12.88-1.155-19.312-1.803
								c1.75,6.421,3.68,12.824,5.095,19.304C373.742,199.175,374.42,203.432,374.891,207.712z"/>
						</g>
					</g>
				</g>
				<g>
					<path style="fill:#6F5869;" d="M266.247,171.189c-0.122,0-0.242-0.06-0.314-0.169c-0.114-0.173-0.065-0.405,0.108-0.519
						c12.197-8.004,25.619-13.585,39.894-16.589c0.198-0.041,0.401,0.087,0.444,0.29c0.042,0.203-0.087,0.401-0.29,0.444
						c-14.183,2.984-27.519,8.529-39.638,16.481C266.389,171.169,266.318,171.189,266.247,171.189z"/>
				</g>
				<g>
					<path style="fill:#6F5869;" d="M446.81,171.884c-0.092,0-0.184-0.033-0.256-0.101c-8.055-7.504-18.48-12.581-29.356-14.294
						c-0.204-0.032-0.344-0.225-0.312-0.429c0.032-0.203,0.219-0.34,0.429-0.312c11.022,1.737,21.587,6.882,29.751,14.487
						c0.151,0.141,0.16,0.378,0.019,0.53C447.01,171.844,446.91,171.884,446.81,171.884z"/>
				</g>
				<g>
					<path style="fill:#6F5869;" d="M286.345,179.249c-0.119,0-0.235-0.056-0.308-0.161c-0.119-0.17-0.077-0.404,0.093-0.522
						c3.132-2.181,6.515-4.01,10.055-5.438c0.191-0.076,0.411,0.015,0.488,0.207c0.078,0.192-0.015,0.411-0.208,0.488
						c-3.488,1.407-6.821,3.21-9.906,5.358C286.493,179.227,286.419,179.249,286.345,179.249z"/>
				</g>
				<g>
					<path style="fill:#6F5869;" d="M287.124,176.215c-0.138,0-0.271-0.076-0.336-0.208c-0.093-0.186-0.017-0.411,0.168-0.503
						l5.076-2.531c0.186-0.093,0.411-0.017,0.503,0.168c0.093,0.186,0.017,0.411-0.168,0.503l-5.076,2.531
						C287.237,176.203,287.18,176.215,287.124,176.215z"/>
				</g>
				<g>
					<path style="fill:#6F5869;" d="M428.531,180.983c-0.102,0-0.205-0.042-0.279-0.124c-1.037-1.158-2.355-2.056-3.813-2.599
						c-0.194-0.072-0.293-0.289-0.221-0.482c0.073-0.194,0.29-0.293,0.483-0.221c1.57,0.585,2.991,1.553,4.109,2.801
						c0.138,0.154,0.125,0.392-0.029,0.53C428.71,180.952,428.62,180.983,428.531,180.983z"/>
				</g>
				<g>
					<path style="fill:#6F5869;" d="M429.02,179.542c-0.085,0-0.169-0.028-0.239-0.086l-2.344-1.944
						c-0.159-0.132-0.182-0.369-0.05-0.528c0.132-0.16,0.368-0.182,0.528-0.049l2.344,1.944c0.159,0.132,0.182,0.369,0.05,0.528
						C429.234,179.495,429.127,179.542,429.02,179.542z"/>
				</g>
				<g>
					<path style="fill:#6F5869;" d="M379.701,426.751c-0.198,0-0.363-0.155-0.374-0.354c-0.012-0.207,0.148-0.384,0.354-0.395
						c11.866-0.641,23.622-2.791,34.943-6.391c0.197-0.06,0.408,0.047,0.471,0.244c0.063,0.197-0.047,0.408-0.244,0.471
						c-11.381,3.619-23.2,5.78-35.129,6.424C379.715,426.751,379.708,426.751,379.701,426.751z"/>
				</g>
				<g>
					<path style="fill:#6F5869;" d="M380.026,429.107c-0.195,0-0.359-0.15-0.374-0.348c-0.015-0.207,0.141-0.387,0.347-0.401
						c10.758-0.775,21.506-2.551,31.946-5.278c0.196-0.05,0.405,0.067,0.458,0.268c0.052,0.2-0.068,0.405-0.268,0.458
						c-10.484,2.738-21.278,4.521-32.081,5.3C380.044,429.107,380.035,429.107,380.026,429.107z"/>
				</g>
				<g>
					<path style="fill:#6F5869;" d="M396.836,429.763c-0.184,0-0.344-0.135-0.371-0.321c-0.029-0.205,0.112-0.396,0.317-0.425
						c5.173-0.751,10.322-1.941,15.305-3.54c0.196-0.063,0.407,0.046,0.472,0.243c0.063,0.197-0.046,0.408-0.243,0.472
						c-5.021,1.61-10.212,2.811-15.426,3.567C396.871,429.762,396.854,429.763,396.836,429.763z"/>
				</g>
				<g>
					<path style="fill:#6F5869;" d="M417.066,214.485c-0.061,0-0.123-0.015-0.18-0.046c-0.182-0.099-0.249-0.327-0.149-0.509
						c2.636-4.825,4.604-9.987,5.852-15.343c0.047-0.202,0.251-0.33,0.45-0.28c0.202,0.047,0.327,0.249,0.28,0.45
						c-1.263,5.422-3.256,10.649-5.924,15.532C417.327,214.415,417.199,214.485,417.066,214.485z"/>
				</g>
				<g>
					<path style="fill:#6F5869;" d="M404.009,240.728c-0.077,0-0.155-0.023-0.222-0.073c-0.167-0.123-0.203-0.357-0.081-0.524
						c8.239-11.221,14.754-23.571,19.362-36.709c0.068-0.195,0.282-0.298,0.478-0.23c0.195,0.069,0.299,0.283,0.229,0.478
						c-4.633,13.207-11.182,25.624-19.464,36.905C404.237,240.675,404.124,240.728,404.009,240.728z"/>
				</g>
				<g>
					<path style="fill:#6F5869;" d="M411.865,388.424c-0.183,0-0.342-0.133-0.37-0.317c-0.879-5.677-2.436-11.243-4.628-16.546
						c-0.079-0.191,0.012-0.411,0.203-0.49c0.191-0.081,0.411,0.012,0.49,0.203c2.215,5.358,3.787,10.983,4.675,16.718
						c0.032,0.205-0.108,0.396-0.313,0.428C411.903,388.423,411.884,388.424,411.865,388.424z"/>
				</g>
				<g>
					<path style="fill:#6F5869;" d="M407.831,388.639c-0.184,0-0.344-0.134-0.371-0.32l-0.875-5.914
						c-0.03-0.205,0.111-0.396,0.316-0.426c0.211-0.034,0.396,0.111,0.426,0.316l0.875,5.914c0.03,0.205-0.111,0.395-0.316,0.426
						C407.867,388.638,407.849,388.639,407.831,388.639z"/>
				</g>
				<g>
					<path style="fill:#6F5869;" d="M405.19,389.083c-0.161,0-0.309-0.105-0.358-0.266l-0.642-2.112
						c-0.059-0.198,0.053-0.407,0.251-0.468c0.196-0.061,0.406,0.052,0.468,0.251l0.64,2.11c0.061,0.198-0.051,0.408-0.249,0.468
						C405.263,389.078,405.227,389.083,405.19,389.083z"/>
				</g>
				<g>
					<path style="fill:#F9F6F3;" d="M318.168,339.376c-3.116,3.661-6.228,7.808-6.396,12.613c-0.075,2.147,0.58,4.478,2.323,5.735
						c1.313,0.947,3.071,1.138,4.647,0.768c1.576-0.37,2.991-1.25,4.239-2.282c4.16-3.439,6.688-8.773,6.716-14.171
						c0.014-2.607-0.84-5.612-3.252-6.6c-1.517-0.621-3.297-0.246-4.704,0.594C320.335,336.873,319.231,338.128,318.168,339.376z"/>
				</g>
				<g>
					<path style="fill:#6F5869;" d="M384.552,440.981c-0.242,0-0.485-0.001-0.728-0.004c-0.207-0.002-0.373-0.172-0.371-0.379
						c0.002-0.207,0.179-0.329,0.379-0.371c4.293,0.048,8.567-0.336,12.763-1.141c0.201-0.04,0.399,0.095,0.439,0.298
						c0.039,0.203-0.094,0.399-0.298,0.438C392.73,440.593,388.635,440.981,384.552,440.981z"/>
				</g>
				<g>
					<path style="fill:#6F5869;" d="M389.537,443.36c-0.196,0-0.361-0.151-0.374-0.35c-0.014-0.207,0.143-0.386,0.349-0.399
						l4.281-0.287c0.23-0.031,0.387,0.143,0.399,0.349c0.014,0.207-0.143,0.386-0.349,0.399l-4.281,0.287
						C389.554,443.36,389.545,443.36,389.537,443.36z"/>
				</g>
				<g>
					<path style="fill:#6F5869;" d="M384.789,449.591c-0.185,0-0.345-0.136-0.371-0.323c-0.029-0.205,0.114-0.395,0.319-0.423
						l8.237-1.152c0.217-0.032,0.395,0.115,0.423,0.319c0.029,0.205-0.114,0.395-0.319,0.423l-8.237,1.152
						C384.823,449.59,384.806,449.591,384.789,449.591z"/>
				</g>
				<g>
					<path style="fill:#6F5869;" d="M289.91,422.707c-0.038,0-0.076-0.006-0.114-0.017c-5.322-1.695-10.936-3.687-15.939-6.755
						c-5.489-3.366-9.58-7.699-11.832-12.53c-0.087-0.188-0.006-0.41,0.181-0.498c0.188-0.091,0.412-0.006,0.499,0.182
						c2.19,4.697,6.182,8.918,11.545,12.208c4.934,3.026,10.498,4.998,15.774,6.679c0.197,0.063,0.306,0.273,0.244,0.472
						C290.217,422.605,290.069,422.707,289.91,422.707z"/>
				</g>
				<g>
					<path style="fill:#6F5869;" d="M360.999,432.525c-24.247,0-49.856-2.817-67.635-7.896c-0.199-0.057-0.315-0.265-0.257-0.463
						c0.057-0.199,0.26-0.314,0.463-0.258c25.931,7.407,68.598,9.987,99.246,6.002c0.218-0.025,0.395,0.119,0.421,0.323
						c0.026,0.206-0.118,0.394-0.323,0.421C383.18,431.92,372.234,432.525,360.999,432.525z"/>
				</g>
				<g>
					<path style="fill:#6F5869;" d="M315.421,447.572c-0.017,0-0.034-0.001-0.051-0.004c-6.592-0.899-13.165-2.333-19.536-4.262
						c-0.198-0.061-0.31-0.27-0.25-0.468c0.06-0.198,0.267-0.31,0.468-0.251c6.332,1.918,12.866,3.344,19.419,4.238
						c0.205,0.027,0.349,0.217,0.321,0.422C315.766,447.435,315.605,447.572,315.421,447.572z"/>
				</g>
				<g>
					<path style="fill:#6F5869;" d="M352.574,450.867c-11.43,0-22.857-0.769-34.188-2.304c-0.205-0.028-0.349-0.217-0.321-0.423
						c0.028-0.204,0.219-0.345,0.422-0.321c20.629,2.797,41.582,3.041,62.274,0.729c0.214-0.013,0.392,0.126,0.415,0.331
						c0.022,0.206-0.126,0.392-0.331,0.415C371.457,450.343,362.014,450.867,352.574,450.867z"/>
				</g>
			</g>
		</g>
		<g>
			<g>
				<path style="fill:#E7A988;" d="M365.105,155.446c0.705,1.278,1.102,2.615,1.242,3.977c6.429,0.618,12.875,1.072,19.293,1.821
					c10.285,1.201,20.501,2.766,30.596,4.916c-0.713-2.455-1.577-4.868-2.635-7.214c-6.268-13.911-19.608-25.146-34.83-26.195
					c-5.21-0.359-11.028,0.754-14.211,4.894c-0.348,0.452-0.637,0.936-0.902,1.43c0.193,0.158,0.32,0.398,0.304,0.732
					c-0.191,3.851-0.287,7.846-1.462,11.509C363.779,152.43,364.612,153.852,365.105,155.446z"/>
			</g>
			<g>
				<g>
					<g>
						<g>
							<g>
								<path style="fill:#474056;" d="M464.217,448.62c-2.223,4.814,1.149,9.102,1.163,13.449c4.759,0.26,8.398,0.113,13.157,0.373
									c-0.001-1.032-0.001-2.065-0.002-3.097c8.933,3.89,19.135,4.667,28.534,2.173c0.291-2.304-1.488-4.435-3.564-5.386
									s-4.414-1.028-6.673-1.308c-3.44-0.427-6.873-1.387-9.784-3.306s-5.262-4.878-6.001-8.335
									c-4.341,0.42-8.682,0.839-13.022,1.259c-1.132,0.109-2.384,0.28-3.117,1.168
									C464.243,446.416,464.658,447.664,464.217,448.62z"/>
							</g>
							<g>
								<path style="fill:#FFFFFF;" d="M497.593,461.191c-4.177,0-8.359-0.796-12.189-1.63l-1.604-0.352
									c-6.106-1.348-12.417-2.741-18.56-1.683c-0.21,0.039-0.398-0.103-0.433-0.306c-0.036-0.204,0.102-0.397,0.306-0.433
									c6.284-1.085,12.672,0.325,18.848,1.689l1.602,0.353c6.295,1.371,13.557,2.641,20.067,0.353
									c0.194-0.07,0.409,0.034,0.478,0.229c0.069,0.195-0.034,0.409-0.229,0.478C503.192,460.834,500.394,461.191,497.593,461.191
									z"/>
							</g>
							<g>
								<path style="fill:#FFFFFF;" d="M469.041,450.778c3.439,0.98,7.069,1.253,10.611,0.798c0.553-0.071,1.182-0.213,1.448-0.713
									c0.201-0.377,0.125-0.839,0.044-1.26c-0.281-1.458-0.562-2.917-0.844-4.375c-4.927,0.74-9.803,1.834-14.58,3.272
									C466.272,449.791,467.711,450.399,469.041,450.778z"/>
							</g>
						</g>
						<g>
							<g>
								<path style="fill:#353A68;" d="M414.891,226.5c-0.311,15.559,3.728,30.542,6.693,44.696
									c12.768,60.953,26.464,118.473,40.554,180.263c5.167-1.779,15.905-3.671,21.073-5.45
									c-4.071-74.804-12.762-145.965-25.358-219.51H414.891z"/>
							</g>
							<g>
								
									<rect x="433.909" y="245.605" transform="matrix(1 -0.0096 0.0096 1 -2.4438 4.1611)" style="fill:#7D95C9;" width="1" height="24.645"/>
							</g>
							<g>
								
									<rect x="435.603" y="254.497" transform="matrix(0.9848 -0.1739 0.1739 0.9848 -37.6426 80.352)" style="fill:#7D95C9;" width="8.265" height="1"/>
							</g>
							<g>
								<path style="fill:#7D95C9;" d="M466.531,451.124c-2.27-11.104-4.443-21.834-6.566-32.315
									c-10.29-50.785-19.176-94.645-32.053-147.319l0.971-0.238c12.883,52.695,21.77,96.564,32.061,147.359
									c2.124,10.48,4.297,21.209,6.567,32.313L466.531,451.124z"/>
							</g>
						</g>
					</g>
					<g>
						<g>
							<g>
								<path style="fill:#474056;" d="M398.524,471.453c1.607-1.085,1.668-3.427,1.555-5.391c-0.157-2.733-0.315-5.466-0.472-8.199
									c-0.049-0.857-0.125-1.781-0.675-2.429c-0.725-0.853-1.979-0.91-3.085-0.902c-5.275,0.037-10.549,0.074-15.824,0.111
									c-2.779,7.062-5.559,14.124-8.338,21.187c-0.551,1.399-1.058,3.136-0.111,4.293c0.715,0.874,3.33,1.826,4.444,1.887
									c4.768,0.259,4.37,0.213,9.144,0.127c1.577-0.028,7.02-2.328,7.874-3.683c1.23-1.952-0.266-3.571,1.29-5.263
									C395.371,472.051,397.249,472.314,398.524,471.453z"/>
							</g>
							<g>
								<path style="fill:#FFFFFF;" d="M380.574,479.782c-2.645,0-5.284-0.449-8.661-2.139c-0.186-0.092-0.261-0.317-0.168-0.503
									c0.093-0.184,0.318-0.26,0.503-0.167c4.96,2.479,8.304,2.182,12.535,1.804l0.727-0.064c1.516-0.132,4.555-1.465,5.469-2.596
									c0.565-0.698,0.755-1.617,0.955-2.589c0.205-0.998,0.418-2.029,1.067-2.865c0.821-1.057,2.072-1.481,3.283-1.893
									c1.265-0.429,2.459-0.834,3.021-1.921c0.095-0.184,0.32-0.253,0.506-0.16c0.184,0.096,0.256,0.321,0.16,0.506
									c-0.702,1.354-2.098,1.828-3.446,2.286c-1.157,0.392-2.249,0.763-2.933,1.643c-0.542,0.697-0.728,1.6-0.925,2.556
									c-0.209,1.017-0.426,2.069-1.105,2.91c-1.054,1.302-4.267,2.721-5.988,2.871l-0.724,0.064
									C383.353,479.658,381.963,479.782,380.574,479.782z"/>
							</g>
							<g>
								<path style="fill:#FFFFFF;" d="M383.466,462.295c1.413,0.1,2.826,0.2,4.238,0.3c1.992,0.141,4.028,0.278,5.958-0.246
									c1.93-0.524,3.77-1.839,4.405-3.772c-4.687-1.688-9.735-2.32-14.682-1.838c-0.945,0.092-1.916,0.234-2.732,0.728
									c-0.817,0.494-1.449,1.422-1.339,2.385c0.102,0.883,0.801,1.599,1.598,1.957
									C381.709,462.167,382.598,462.234,383.466,462.295z"/>
							</g>
						</g>
						<g>
							<g>
								<path style="fill:#353A68;" d="M388.428,226.5l-0.552,5.419c-4.901,45.938-9.057,76.073-9.332,113.942
									c-0.276,37.869,1.357,75.899-2.835,113.493c8.739-0.898,17.589-0.499,26.229,1.183
									c6.051-71.458,18.943-132.943,30.18-198.883c1.668-9.791,0.824-22.473-0.435-35.154H388.428z"/>
							</g>
							<g>
								<path style="fill:#7D95C9;" d="M397.915,458.469l-0.996-0.08c5.254-65.278,16.461-123.547,31.672-190.953l0.975,0.221
									C414.364,335.021,403.165,393.25,397.915,458.469z"/>
								<g>
									<g>
										<path style="fill:#7D95C9;" d="M394.351,271.083l-0.178-0.984c10.73-1.931,21.679-2.442,32.545-1.521l-0.084,0.996
											C415.853,268.66,404.994,269.169,394.351,271.083z"/>
									</g>
									<g>
										<path style="fill:#7D95C9;" d="M419.207,275.225c-5.169-0.807-10.435-0.977-15.648-0.505l-0.09-0.996
											c5.293-0.479,10.642-0.307,15.893,0.513L419.207,275.225z"/>
									</g>
								</g>
							</g>
						</g>
					</g>
				</g>
				<g>
					<g>
						<path style="fill:#FFFFFF;" d="M420.47,241.248c-0.048-1.47,0.053-3.145-0.079-4.717c-9.367,0.371-18.724,0.99-28.055,1.898
							c-0.812,2.623-1.624,5.246-2.436,7.869c10.146-1.645,20.382-2.73,30.646-3.269
							C420.522,242.435,420.489,241.842,420.47,241.248z"/>
					</g>
					<g>
						<path style="fill:#FFFFFF;" d="M422.355,236.457c0.118,1.602,0.033,3.269,0.086,4.791c0.02,0.563,0.051,1.125,0.073,1.688
							c1.027-0.047,2.054-0.096,3.082-0.132c-0.014-2.155,0.019-4.312,0.052-6.47C424.55,236.366,423.453,236.418,422.355,236.457z"
							/>
					</g>
					<g>
						<path style="fill:#FFFFFF;" d="M446.33,242.847c3.982,0.143,7.961,0.361,11.932,0.678c-0.411-2.37-0.823-4.739-1.234-7.109
							c-3.6-0.125-7.202-0.19-10.803-0.231C446.274,238.41,446.258,240.632,446.33,242.847z"/>
					</g>
					<g>
						<path style="fill:#FFFFFF;" d="M444.37,242.782c-0.07-2.198-0.059-4.404-0.113-6.612c-1.258-0.009-2.517-0.03-3.775-0.031
							c0.498,2.143,0.516,4.343,0.48,6.556C442.098,242.716,443.234,242.749,444.37,242.782z"/>
					</g>
					<g>
						<path style="fill:#FF7300;" d="M438.499,236.145c-3.627,0.013-7.253,0.053-10.879,0.143c-0.033,2.152-0.067,4.302-0.054,6.45
							c3.853-0.108,7.709-0.113,11.563-0.066C439.172,240.44,439.113,238.227,438.499,236.145z"/>
					</g>
				</g>
			</g>
			<g>
				<path style="fill:#353A68;" d="M414.751,135.062c0.227,0.562,0.097,1.197-0.037,1.788c-0.722,3.2-1.445,6.4-2.167,9.6
					c-5.604-4.209-5.789-12.821-10.65-17.87c3.711,1.697,7.422,3.394,11.133,5.091C413.72,133.986,414.468,134.361,414.751,135.062z
					"/>
			</g>
			<g>
				<g>
					<path style="fill:#F2EEDD;" d="M443.241,126.102c-19.716-7.99-37.995-8.739-59.354-6.487
						c-5.329,0.562-11.111,1.707-14.458,5.617c-3.889,4.543-3.086,11.073-1.887,16.778c6.704,31.907,19.6,63.213,18.421,95.708
						c24.195-3.717,48.854-4.793,73.315-3.199c-5.776-26.901-6.848-51.302-2.006-78.363c1.126-6.293,0.313-15.156-3.827-20.234
						C451.198,133.165,446.645,127.481,443.241,126.102z"/>
				</g>
				<g>
					<g>
						<g>
							<path style="fill:#EED2BF;" d="M417.73,98.902c-6.246,1.106-16.082,1.66-22.326,0.541c1.754,8.823,2.736,12.682-0.315,21.143
								c39.223,10.204,28.381,7.972,29.111,5.487C418.791,118.195,418.763,108.403,417.73,98.902z"/>
						</g>
						<g>
							<path style="fill:#E7A988;" d="M424.2,126.074c-5.409-7.879-5.438-17.671-6.47-27.171c-6.246,1.106-16.082,1.66-22.326,0.541
								c0.429,2.157,0.81,4.015,1.099,5.719c3.36,10.237,10.805,17.142,19.987,21.044
								C429.485,129.622,423.658,127.918,424.2,126.074z"/>
						</g>
						<g>
							<path style="fill:#353A68;" d="M420.667,118.67c-1.971-6.219-2.208-13.064-2.937-19.768
								c-5.349,0.947-13.324,1.486-19.427,0.919C399.301,111.706,409.62,117.759,420.667,118.67z"/>
						</g>
					</g>
					<g>
						<g>
							<path style="fill:#EED2BF;" d="M411.598,72.72c-4.296-1.896-9.292-1.057-13.773,0.348c-3.137,0.983-6.352,2.345-8.326,4.974
								c-2.547,3.391-2.428,8.159-1.07,12.177c2.538,7.506,7.996,13.951,15.264,17.106c8.798,3.82,14.458,2.714,22.227,1.158
								c-0.753-5.904-0.605-11.489-2.605-16.728c-0.542-1.42-1.956-2.471-2.373-3.82c-0.448-1.451,0.199-2.76-0.347-4.226
								C418.734,78.719,416.326,74.806,411.598,72.72z"/>
						</g>
						<g>
							<path style="fill:#E7A988;" d="M409.451,109.254c5.819,1.336,10.529,0.418,16.468-0.772
								c-0.222-1.741-0.696-2.516-0.839-4.201c-4.215,0.49-5.757,2.032-8.297,4.402C415.667,109.726,411.167,109.32,409.451,109.254
								z"/>
						</g>
						<g>
							<g>
								<path style="fill:#E7A988;" d="M411.598,72.72c-4.296-1.896-9.292-1.057-13.773,0.348c-4.342,1.361-8.377,3.521-9.897,8.107
									c-1.074,3.242-0.814,8.342,2.499,10.246c1.891,1.087,4.227,1.435,6.211,2.362c1.663,0.777,3.241,1.857,4.251,3.39
									c-0.488-1.712-1.142-3.376-1.561-5.106c-0.348-1.438-0.602-3.003-0.368-4.479c0.338-2.127,2.34-2.586,4.197-2.629
									c2.91-0.066,5.902-0.53,8.699-1.467c1.281-0.43,2.851-0.908,3.936-1.731c1.05-0.797,1.458-2.178,2.469-3.02
									C416.675,76.124,414.609,74.049,411.598,72.72z"/>
							</g>
							<path style="fill:#353A68;" d="M421.702,62.376c-0.995,2.064-2.713,3.771-4.783,4.755c0.81-0.887,1.292-2.068,1.335-3.269
								c-1.985,2.739-5.362,4.139-8.693,4.726c-3.331,0.587-6.746,0.492-10.099,0.936c-3.353,0.443-6.794,1.522-9.115,3.983
								c-2.576,2.731-6.276,6.446-5.057,10.606c-1.43,1.934-2.164,4.335-1.667,6.669c0.64,3.004,3.072,5.285,5.59,7.044
								c2.518,1.759,5.298,3.251,7.273,5.604c0.68-2.132,0.906-4.372,0.973-6.643c0.903,0.695,1.756,1.462,2.596,2.233
								c0.604,0.121,1.17-0.466,1.243-1.078c0.073-0.612-0.63-2.78-0.942-3.311c-0.826-1.408-1.503-1.071-2.307-2.493
								c-0.233-0.411-0.434-0.849-0.597-1.298c-0.01-2.88,0.109-5.709,0.926-8.337c0.281-0.036,0.559-0.079,0.843-0.107
								c4.48-0.431,9.088-0.505,13.28-2.143c4.192-1.639,7.977-5.324,8.117-9.823c-0.726,0.64-1.451,1.28-2.177,1.919
								C420.449,69.425,421.595,65.919,421.702,62.376z"/>
							<g>
								<path style="fill:#EED2BF;" d="M401.628,98.609c-0.126-1-5.054-3.957-6.013-3.647c-0.959,0.31-1.579,1.304-1.694,2.306
									c-0.114,1.001,0.195,2.005,0.604,2.926c0.559,1.261,1.314,2.435,2.228,3.467c0.687,0.776,1.505,1.495,2.508,1.758
									c1.002,0.263,2.215-0.054,2.729-0.954L401.628,98.609z"/>
							</g>
						</g>
					</g>
				</g>
				<g>
					<path style="fill:#353A68;" d="M457.272,156.156c1.126-6.293,0.313-15.156-3.827-20.234c-2.247-2.756-6.8-8.44-10.204-9.82
						c-3.605-1.461-7.161-2.674-10.697-3.677c13.192,35.643,10.157,73.883,11.582,111.455c5.055,0.102,10.108,0.31,15.152,0.639
						C453.502,207.617,452.43,183.217,457.272,156.156z"/>
				</g>
				<g>
					<path style="fill:#6F5869;" d="M434.933,234.316c-0.131,0-0.259-0.069-0.327-0.192c-0.102-0.181-0.037-0.409,0.143-0.51
						l5.838-3.269c-0.442-0.541-1.174-0.861-1.856-0.805c-0.214,0.022-0.38-0.129-0.403-0.329c-0.024-0.201,0.115-0.384,0.315-0.415
						c1.604-0.249,2.612-2.002,2.746-3.524c0.135-1.526-0.334-3.073-0.788-4.57l-0.145-0.483
						c-2.786-9.333-3.033-19.183-3.273-28.708c-0.171-6.829-1.001-14.665-1.803-22.243c-0.804-7.593-1.634-15.444-1.807-22.303
						c-0.005-0.207,0.158-0.379,0.365-0.384c0.004,0,0.007,0,0.01,0c0.203,0,0.37,0.162,0.375,0.366
						c0.171,6.829,1.001,14.665,1.803,22.243c0.804,7.593,1.634,15.444,1.807,22.303c0.238,9.476,0.484,19.275,3.242,28.512
						l0.145,0.48c0.475,1.565,0.965,3.183,0.818,4.853c-0.124,1.405-0.852,2.917-2.073,3.701c0.583,0.258,1.087,0.699,1.39,1.257
						c0.099,0.18,0.033,0.406-0.146,0.506l-6.191,3.467C435.058,234.301,434.995,234.316,434.933,234.316z"/>
				</g>
				<g>
					<path style="fill:#353A68;" d="M432.022,134.591c-1.124,1.72-0.986,5.395-2.817,6.329c4.136,23.838,4.562,43.925,0.429,67.763
						c4.682,3.696,8.313,5.403,11.459,7.639c0.37-6.284,2.617-6.776,2.587-9.857c-0.027-2.829-0.849-6.709-1.602-12.937
						C439.737,174.167,437.757,153.23,432.022,134.591z"/>
				</g>
			</g>
			<g>
				<g>
					<path style="fill:#7D95C9;" d="M390.166,116.152c-0.897,0.066-1.968,2.878-2.875,2.957c-1.768,0.155-1.595,0.38-3.405,0.584
						c-5.329,0.602-11.111,1.829-14.458,6.019c-3.889,4.868-2.56,11.786-1.887,17.981c4.683,43.122,24.708,59.972,14.452,125.906
						c8.09-1.332,18.733-3.687,28.328-5.149c6.037-0.92,10.384-6.26,10.04-12.357c-1.779-31.528-2.893-75.929-6.776-104.402
						C411.841,134.613,401.145,122.732,390.166,116.152z"/>
				</g>
				<g>
					<path style="fill:#353A68;" d="M366.967,138.532c0.162,1.737,0.391,3.476,0.574,5.161c0.994,9.152,2.68,17.119,4.62,24.624
						c8.672,20.047,26.007,35.125,46.276,43.961c-0.603-12.676-1.282-25.575-2.17-37.564
						C395.085,167.888,375.77,157.781,366.967,138.532z"/>
				</g>
				<g>
					<g>
						<path style="fill:#353A68;" d="M417.524,260.618c-0.2,0-0.366-0.157-0.375-0.359c-1.349-32.003-6.489-63.851-15.276-94.655
							c-0.029-0.102-0.014-0.211,0.042-0.301c0.056-0.089,0.146-0.152,0.25-0.171c2.592-0.48,5.111-1.468,7.347-2.874l-6.977-0.9
							c-0.105-0.014-0.197-0.07-0.258-0.155c-0.061-0.085-0.083-0.192-0.062-0.294c3.281-15.474-2.993-32.12-15.614-41.421
							c-0.167-0.122-0.202-0.357-0.079-0.524c0.122-0.166,0.356-0.203,0.524-0.079c12.745,9.393,19.136,26.139,15.985,41.782
							l7.573,0.977c0.153,0.02,0.279,0.132,0.316,0.283c0.037,0.15-0.022,0.308-0.149,0.396c-2.406,1.682-5.188,2.877-8.065,3.468
							c8.736,30.741,13.847,62.51,15.193,94.438c0.009,0.207-0.152,0.382-0.359,0.391
							C417.535,260.618,417.529,260.618,417.524,260.618z"/>
					</g>
					<g>
						<path style="fill:#353A68;" d="M382.372,269.043c-0.134,0-0.264-0.072-0.331-0.199c-0.098-0.183-0.028-0.409,0.155-0.507
							c4.787-2.549,10.32-3.06,15.672-3.554c0.809-0.075,1.616-0.149,2.418-0.23c5.834-0.591,12.387-1.782,16.755-6.146
							c0.147-0.146,0.384-0.146,0.53,0.001c0.147,0.146,0.146,0.384-0.001,0.53c-4.533,4.528-11.243,5.757-17.208,6.36
							c-0.805,0.081-1.614,0.156-2.425,0.232c-5.277,0.487-10.735,0.991-15.39,3.469
							C382.492,269.029,382.432,269.043,382.372,269.043z"/>
					</g>
				</g>
				<g>
					<path style="fill:#353A68;" d="M388.28,238.623c-0.125,0-0.248-0.063-0.319-0.178c-0.108-0.176-0.054-0.407,0.123-0.516
						c7.038-4.338,14.01-8.982,20.723-13.802c0.167-0.12,0.402-0.083,0.523,0.086c0.121,0.169,0.082,0.402-0.086,0.523
						c-6.727,4.831-13.714,9.484-20.768,13.832C388.416,238.605,388.348,238.623,388.28,238.623z"/>
				</g>
			</g>
			<g>
				<path style="fill:#98A9D8;" d="M446.841,130.773c10.562,8.995,9.996,16.154,15.442,28.913c3.556,8.33,7.45,20.251,8.543,29.242
					c0.924,7.604-0.918,17.108-2.3,24.642c-2.999,16.348-2.96,30.684-7.557,46.656c-4.5-5.423-9.286-9.059-9.896-16.079
					c-0.246-2.835,0.204-5.681,0.698-8.483c1.718-9.733,4.009-19.52,3.317-29.38c-0.684-9.758-4.251-19.045-6.6-28.541
					c-3.404-13.761-4.25-28.008-5.083-42.16L446.841,130.773z"/>
			</g>
			<g>
				<g>
					<g>
						<path style="fill:#98A9D8;" d="M429.181,181.633c1.325-8.035-1.353-10.238-6.323-16.69c-4.97-6.451-9.605-6.037-16.132-10.908
							c-8.286-6.184-16.611-21.229-24.898-27.412c-1.981-1.479-4.043-2.995-6.458-3.527c-4.744-1.045-9.678,2.198-11.818,6.559
							c-2.14,4.361-1.983,9.513-1.004,14.271c2.249,10.935,8.536,20.748,16.448,28.624c7.912,7.876,17.413,13.968,27.143,19.44
							c5.438,3.059,11.946,6.006,17.681,3.547C428.227,193.648,428.401,186.364,429.181,181.633z"/>
					</g>
					<g>
						<path style="fill:#FFFFFF;" d="M416.783,195.501c-0.05,0-0.1-0.01-0.147-0.03c-22.802-9.772-37.835-21.881-51.889-41.796
							c-0.12-0.169-0.079-0.403,0.09-0.522c0.169-0.12,0.404-0.08,0.522,0.09c13.967,19.792,28.908,31.827,51.571,41.54
							c0.19,0.081,0.278,0.302,0.197,0.493C417.067,195.415,416.929,195.501,416.783,195.501z"/>
					</g>
					<g>
						<path style="fill:#353A68;" d="M405.274,154.544c-3.121,5.586-4.13,12.32-2.785,18.576
							c1.345,6.256,5.034,11.979,10.175,15.788c-3.857-9.644-4.02-20.713-0.449-30.465
							C409.901,157.143,407.588,155.844,405.274,154.544z"/>
					</g>
				</g>
				<g>
					<g>
						<path style="fill:#EED2BF;" d="M421.485,106.192c1.442-0.695,3.063-0.904,4.651-1.103c2.14-0.269,4.334-0.535,6.434-0.044
							c2.284,0.534,3.806,1.99,5.823,2.692c0.839,0.292,1.305,1.183,1.027,2.027c-0.309,0.936-0.592,1.813-0.964,2.9
							c-0.216,0.631,0.066,1.771-0.575,1.957c-0.668,0.194-1.372-0.344-1.613-0.997c-0.241-0.653-0.143-1.376-0.041-2.064
							c-1.51,1.519-3.309,2.749-5.272,3.607c-0.421,2.168-0.454,4.411-0.098,6.591c-3.466-0.335-6.917-0.829-10.337-1.48
							c-0.843-0.16-1.789-0.403-2.205-1.155c-0.236-0.427-0.249-0.937-0.255-1.425c-0.036-2.627,0.706-4.776,0.67-7.404
							C419.438,108.724,419.934,106.939,421.485,106.192z"/>
					</g>
					<g>
						<path style="fill:#98A9D8;" d="M422.085,197.228c3.319-0.811,5.794-3.735,6.99-6.936c1.196-3.201,1.322-6.686,1.434-10.101
							c0.632-19.169,2.168-41.122,2.801-60.291c-4.205-1.31-14.059-1.839-18.265-3.149c-2.204,21.414-10.042,43.674-7.084,65.09
							c0.539,3.903,1.481,7.889,3.846,11.041C414.171,196.035,418.257,198.164,422.085,197.228z"/>
					</g>
					<g>
						<path style="fill:#FFFFFF;" d="M428.101,187.216c-0.036,0-0.072-0.005-0.108-0.016c-0.198-0.06-0.311-0.269-0.251-0.467
							c1.137-3.77,0.922-7.85,0.715-11.795l-0.028-0.549c-0.9-17.378-0.328-34.956,1.7-52.245c0.024-0.205,0.202-0.35,0.416-0.329
							c0.205,0.024,0.353,0.21,0.328,0.416c-2.023,17.248-2.594,34.783-1.696,52.119l0.029,0.549
							c0.211,4.01,0.429,8.155-0.745,12.051C428.411,187.112,428.262,187.216,428.101,187.216z"/>
					</g>
					<g>
						<path style="fill:#353A68;" d="M432.88,126.2c-6.316,0-12.526-1.096-18.463-3.258c-0.195-0.071-0.295-0.286-0.225-0.481
							c0.071-0.195,0.289-0.294,0.48-0.224c5.854,2.132,11.979,3.213,18.207,3.213c0.092,0,0.209-0.006,0.272-0.001
							c0.206,0,0.374,0.167,0.375,0.373c0.001,0.207-0.166,0.376-0.373,0.377C433.064,126.2,432.972,126.2,432.88,126.2z"/>
					</g>
				</g>
			</g>
			<g>
				<g>
					<path style="fill:#7D95C9;" d="M458.846,261.897c1.686,0.268,3.353,0.509,4.955,0.621
						c-5.776-28.829-11.37-74.664-6.528-103.665c1.126-6.744,1.368-16.577-2.771-22.019c-2.247-2.954-7.2-9.38-10.604-10.858
						c-3.431-1.49-8.252-2.893-11.62-3.937c2.919,4.52,6.439,10.237,7.138,15.13c5.675,31.215,5.629,80.292,9.49,114.329
						C449.506,256.808,453.568,261.059,458.846,261.897z"/>
				</g>
				<g>
					<path style="fill:#353A68;" d="M453.25,258.301c-0.191,0-0.354-0.145-0.373-0.338c-2.373-24.031-3.519-64.988-1.474-88.085
						l-5.16,0.84c-0.179,0.03-0.342-0.067-0.408-0.229c-0.065-0.162-0.011-0.348,0.133-0.448l6.339-4.434
						c-3.04-14.471-8.319-28.305-15.693-41.12c-0.104-0.18-0.041-0.409,0.138-0.512c0.181-0.103,0.409-0.042,0.513,0.138
						c7.455,12.956,12.78,26.947,15.828,41.583c0.03,0.147-0.029,0.298-0.152,0.384l-5.196,3.635l4.017-0.654
						c0.117-0.021,0.231,0.017,0.316,0.096c0.085,0.079,0.128,0.193,0.117,0.309c-2.101,22.962-0.956,64.26,1.43,88.424
						c0.021,0.206-0.13,0.39-0.336,0.41C453.274,258.3,453.262,258.301,453.25,258.301z"/>
				</g>
				<g>
					<path style="fill:#353A68;" d="M462.405,261.197c-3.596,0-7.142-1.146-10.058-3.263c-0.167-0.122-0.204-0.357-0.083-0.524
						c0.122-0.168,0.357-0.203,0.525-0.083c2.972,2.158,6.619,3.261,10.299,3.105c0.224,0.011,0.382,0.152,0.391,0.359
						c0.009,0.207-0.152,0.382-0.359,0.391C462.881,261.192,462.643,261.197,462.405,261.197z"/>
				</g>
				<g>
					<path style="fill:#353A68;" d="M457.868,232.322c-0.084,0-0.168-0.028-0.237-0.085l-3.397-2.776
						c-0.16-0.131-0.185-0.368-0.053-0.528c0.132-0.16,0.369-0.183,0.527-0.053l3.397,2.776c0.16,0.131,0.185,0.368,0.053,0.528
						C458.084,232.275,457.977,232.322,457.868,232.322z"/>
				</g>
			</g>
		</g>
	</g>
</g>
</svg>
